<svg width="67" height="65" viewBox="0 0 67 65" fill="none" xmlns="http://www.w3.org/2000/svg">
<g clip-path="url(#clip0)">
<path d="M33.0896 0.0063202C15.2074 -0.339974 0.41025 13.5875 0.00195312 31.1491C0.0486119 40.0886 4.07898 48.5599 11.0311 54.3301V63.6459C11.0311 64.3937 11.6484 65 12.4098 65C12.6682 65 12.9214 64.9287 13.1405 64.7942L20.8251 60.0795C24.7403 61.5503 28.8978 62.3002 33.0896 62.292C50.9718 62.6383 65.769 48.7108 66.1773 31.1492C65.769 13.5875 50.9718 -0.339974 33.0896 0.0063202Z" fill="#2196F3"/>
<path d="M54.8735 22.2124C54.4633 21.6724 53.7112 21.5108 53.1089 21.8332L38.7709 29.5106L29.8511 21.9983C29.3041 21.5378 28.4883 21.5684 27.9789 22.0688L11.4351 38.3172C10.8983 38.8475 10.9009 39.7049 11.441 40.2321C11.8728 40.6537 12.535 40.7471 13.0702 40.462L27.4081 32.7846L36.3362 40.2995C36.8832 40.76 37.699 40.7294 38.2084 40.229L54.7523 23.9806C55.2344 23.5027 55.2861 22.7496 54.8735 22.2124Z" fill="#FAFAFA"/>
</g>
<defs>
<clipPath id="clip0">
<rect width="66.1818" height="65" fill="white"/>
</clipPath>
</defs>
</svg>
