<svg width="65" height="65" viewBox="0 0 65 65" fill="none" xmlns="http://www.w3.org/2000/svg">
<path d="M44.6875 0H20.3125C9.09594 0 0 9.09594 0 20.3125V44.6875C0 55.9041 9.09594 65 20.3125 65H44.6875C55.9041 65 65 55.9041 65 44.6875V20.3125C65 9.09594 55.9041 0 44.6875 0ZM58.9062 44.6875C58.9062 52.5281 52.5281 58.9062 44.6875 58.9062H20.3125C12.4719 58.9062 6.09375 52.5281 6.09375 44.6875V20.3125C6.09375 12.4719 12.4719 6.09375 20.3125 6.09375H44.6875C52.5281 6.09375 58.9062 12.4719 58.9062 20.3125V44.6875Z" fill="url(#paint0_linear)"/>
<path d="M32.5 16.25C23.5259 16.25 16.25 23.5259 16.25 32.5C16.25 41.4741 23.5259 48.75 32.5 48.75C41.4741 48.75 48.75 41.4741 48.75 32.5C48.75 23.5259 41.4741 16.25 32.5 16.25ZM32.5 42.6562C26.9019 42.6562 22.3438 38.0981 22.3438 32.5C22.3438 26.8978 26.9019 22.3438 32.5 22.3438C38.0981 22.3438 42.6562 26.8978 42.6562 32.5C42.6562 38.0981 38.0981 42.6562 32.5 42.6562Z" fill="url(#paint1_linear)"/>
<path d="M49.969 17.1966C51.1649 17.1966 52.1343 16.2271 52.1343 15.0313C52.1343 13.8354 51.1649 12.866 49.969 12.866C48.7732 12.866 47.8037 13.8354 47.8037 15.0313C47.8037 16.2271 48.7732 17.1966 49.969 17.1966Z" fill="url(#paint2_linear)"/>
<defs>
<linearGradient id="paint0_linear" x1="5.95014" y1="59.0503" x2="59.0499" y2="5.94973" gradientUnits="userSpaceOnUse">
<stop stop-color="#FFC107"/>
<stop offset="0.507" stop-color="#F44336"/>
<stop offset="0.99" stop-color="#9C27B0"/>
</linearGradient>
<linearGradient id="paint1_linear" x1="21.0098" y1="43.9902" x2="43.9902" y2="21.0098" gradientUnits="userSpaceOnUse">
<stop stop-color="#FFC107"/>
<stop offset="0.507" stop-color="#F44336"/>
<stop offset="0.99" stop-color="#9C27B0"/>
</linearGradient>
<linearGradient id="paint2_linear" x1="48.4381" y1="16.5626" x2="51.5" y2="13.5003" gradientUnits="userSpaceOnUse">
<stop stop-color="#FFC107"/>
<stop offset="0.507" stop-color="#F44336"/>
<stop offset="0.99" stop-color="#9C27B0"/>
</linearGradient>
</defs>
</svg>
