<svg width="906" height="271" viewBox="0 0 906 271" fill="none" xmlns="http://www.w3.org/2000/svg">
<g clip-path="url(#clip0)">
<path d="M345 45.2657C309.757 21.7094 259.726 7 204.232 7C97.5128 7 11 61.3974 11 128.5C11 195.603 97.5128 250 204.232 250C252.232 250 296.145 238.995 329.936 220.779" stroke="black" stroke-dasharray="10 10"/>
<path d="M586 38.5683C554.37 24.3601 515.639 16 473.804 16C424.814 16 380.083 27.4635 346.025 46.3572M586 236.432C554.37 250.64 515.639 259 473.804 259C417.763 259 367.294 243.999 332 220.034" stroke="black" stroke-dasharray="10 10"/>
<path d="M585 38.8025C616.731 24.452 655.664 16 697.737 16C804.473 16 891 70.3974 891 137.5C891 204.603 804.473 259 697.737 259C655.664 259 616.731 250.548 585 236.198" stroke="black" stroke-dasharray="10 10"/>
</g>
<defs>
<clipPath id="clip0">
<rect x="-71" y="-1892" width="1920" height="11172" fill="white"/>
</clipPath>
</defs>
</svg>
