<svg width="924" height="268" viewBox="0 0 924 268" fill="none" xmlns="http://www.w3.org/2000/svg">
<g clip-path="url(#clip0)">
<path d="M350 44.2657C314.757 20.7094 264.726 6 209.232 6C102.513 6 16 60.3974 16 127.5C16 194.603 102.513 249 209.232 249C257.232 249 301.145 237.995 334.936 219.779" stroke="black" stroke-dasharray="10 10"/>
<path d="M591 37.5683C559.37 23.3601 520.639 15 478.804 15C429.814 15 385.083 26.4635 351.025 45.3572M591 235.432C559.37 249.64 520.639 258 478.804 258C422.763 258 372.294 242.999 337 219.034" stroke="black" stroke-dasharray="10 10"/>
<path d="M590 37.8025C621.731 23.452 660.664 15 702.737 15C809.473 15 896 69.3974 896 136.5C896 203.603 809.473 258 702.737 258C660.664 258 621.731 249.548 590 235.198" stroke="black" stroke-dasharray="10 10"/>
</g>
<defs>
<clipPath id="clip0">
<rect x="-66" y="-1893" width="1920" height="11172" fill="white"/>
</clipPath>
</defs>
</svg>
