<svg width="372" height="250" viewBox="0 0 372 250" fill="none" xmlns="http://www.w3.org/2000/svg">
<path d="M370.614 109.665C371.226 113.023 371.639 116.423 371.846 119.859L371.346 119.889C371.448 121.584 371.5 123.288 371.5 125C371.5 126.712 371.448 128.416 371.346 130.111L371.846 130.141C371.639 133.577 371.226 136.977 370.614 140.335L370.122 140.246C369.512 143.596 368.704 146.905 367.706 150.168L368.184 150.315C367.186 153.574 366 156.786 364.633 159.948L364.174 159.749C362.832 162.852 361.315 165.906 359.63 168.905L360.066 169.149C358.406 172.105 356.583 175.006 354.607 177.85L354.196 177.564C352.273 180.331 350.202 183.043 347.991 185.695L348.375 186.015C346.208 188.613 343.908 191.154 341.48 193.633L341.123 193.283C338.765 195.69 336.286 198.04 333.692 200.328L334.022 200.703C331.487 202.938 328.842 205.115 326.093 207.228L325.789 206.832C323.111 208.89 320.335 210.889 317.463 212.825L317.743 213.24C314.94 215.13 312.047 216.96 309.07 218.727L308.814 218.297C305.911 220.02 302.926 221.684 299.864 223.284L300.095 223.727C297.089 225.299 294.01 226.809 290.861 228.256L290.652 227.802C287.579 229.214 284.439 230.566 281.237 231.855L281.423 232.319C278.278 233.584 275.073 234.789 271.811 235.931L271.646 235.459C268.45 236.578 265.199 237.637 261.896 238.632L262.041 239.111C258.788 240.091 255.486 241.011 252.138 241.867L252.014 241.383C248.727 242.223 245.395 243.003 242.021 243.72L242.125 244.209C238.8 244.915 235.434 245.56 232.031 246.143L231.946 245.65C228.603 246.222 225.224 246.733 221.811 247.181L221.876 247.677C218.504 248.12 215.101 248.501 211.667 248.82L211.621 248.322C208.24 248.635 204.83 248.888 201.393 249.077L201.421 249.577C198.023 249.764 194.599 249.89 191.152 249.953L191.143 249.453C189.434 249.484 187.72 249.5 186 249.5C184.28 249.5 182.566 249.484 180.857 249.453L180.848 249.953C177.401 249.89 173.977 249.764 170.579 249.577L170.607 249.077C167.17 248.888 163.76 248.635 160.379 248.322L160.333 248.82C156.899 248.501 153.496 248.12 150.124 247.677L150.189 247.181C146.776 246.733 143.397 246.222 140.054 245.65L139.969 246.143C136.566 245.56 133.2 244.915 129.875 244.209L129.979 243.72C126.605 243.003 123.273 242.223 119.986 241.383L119.862 241.867C116.514 241.011 113.212 240.091 109.959 239.111L110.104 238.632C106.801 237.637 103.55 236.578 100.354 235.459L100.189 235.931C96.9268 234.789 93.7216 233.584 90.5767 232.319L90.7634 231.855C87.5608 230.566 84.421 229.214 81.3478 227.802L81.139 228.256C77.99 226.809 74.9106 225.299 71.9048 223.727L72.1364 223.284C69.0745 221.684 66.0894 220.02 63.1855 218.297L62.9303 218.727C59.9529 216.96 57.0603 215.13 54.2572 213.24L54.5367 212.825C51.6655 210.889 48.8888 208.89 46.2115 206.832L45.9068 207.228C43.1577 205.115 40.5129 202.938 37.9776 200.703L38.3083 200.328C35.7138 198.04 33.2348 195.69 30.8771 193.283L30.5198 193.633C28.0919 191.154 25.7917 188.613 23.6255 186.015L24.0095 185.695C21.7981 183.043 19.7274 180.331 17.804 177.564L17.3935 177.85C15.4167 175.006 13.5944 172.105 11.934 169.149L12.3699 168.905C10.6849 165.906 9.16774 162.852 7.8259 159.749L7.36697 159.948C6 156.787 4.81378 153.574 3.81632 150.315L4.29443 150.168C3.29579 146.905 2.48755 143.596 1.87773 140.246L1.38581 140.335C0.774411 136.977 0.361254 133.577 0.154446 130.141L0.653542 130.111C0.55151 128.416 0.5 126.712 0.5 125C0.5 123.288 0.551509 121.584 0.653539 119.889L0.154442 119.859C0.361247 116.423 0.774402 113.023 1.3858 109.665L1.87772 109.754C2.48753 106.404 3.29577 103.095 4.29441 99.8318L3.8163 99.6855C4.81376 96.4264 5.99998 93.2136 7.36695 90.0524L7.82588 90.2509C9.16771 87.1479 10.6849 84.0944 12.3699 81.0955L11.934 80.8506C13.5944 77.8954 15.4166 74.9937 17.3935 72.1502L17.804 72.4356C19.7274 69.669 21.7981 66.9573 24.0095 64.3051L23.6255 63.9849C25.7916 61.3869 28.0918 58.8462 30.5198 56.3671L30.877 56.7169C33.2347 54.3095 35.7137 51.96 38.3083 49.6723L37.9776 49.2972C40.5129 47.0618 43.1577 44.8854 45.9067 42.7719L46.2115 43.1683C48.8888 41.1099 51.6655 39.111 54.5367 37.175L54.2572 36.7604C57.0603 34.8703 59.9529 33.0401 62.9303 31.273L63.1855 31.703C66.0894 29.9796 69.0745 28.3162 72.1364 26.7157L71.9048 26.2726C74.9106 24.7015 77.99 23.191 81.139 21.7439L81.3478 22.1982C84.421 20.7859 87.5608 19.4341 90.7634 18.1452L90.5768 17.6813C93.7216 16.4157 96.9268 15.2107 100.189 14.0688L100.354 14.5407C103.55 13.4217 106.801 12.3634 110.104 11.368L109.959 10.8892C113.212 9.90882 116.514 8.98937 119.862 8.13304L119.986 8.61745C123.273 7.77684 126.605 6.99716 129.979 6.28047L129.875 5.79138C133.2 5.08493 136.566 4.43958 139.969 3.8573L140.054 4.35013C143.397 3.77814 146.776 3.26711 150.189 2.81892L150.124 2.32317C153.496 1.88047 156.899 1.49896 160.333 1.18044L160.379 1.67831C163.76 1.36469 167.17 1.11225 170.607 0.922702L170.579 0.42346C173.977 0.236059 177.401 0.110031 180.848 0.0470292L180.857 0.546946C182.566 0.515716 184.28 0.5 186 0.5C187.72 0.5 189.434 0.515716 191.143 0.546945L191.152 0.0470285C194.599 0.11003 198.023 0.236058 201.421 0.423459L201.393 0.9227C204.83 1.11224 208.24 1.36469 211.621 1.6783L211.667 1.18044C215.101 1.49896 218.504 1.88046 221.876 2.32317L221.811 2.81891C225.224 3.26711 228.603 3.77814 231.946 4.35013L232.031 3.8573C235.434 4.43958 238.8 5.08493 242.125 5.79138L242.021 6.28047C245.395 6.99716 248.727 7.77684 252.014 8.61745L252.138 8.13304C255.486 8.98937 258.788 9.90882 262.041 10.8892L261.896 11.368C265.199 12.3634 268.45 13.4217 271.646 14.5407L271.811 14.0688C275.073 15.2107 278.278 16.4157 281.423 17.6814L281.237 18.1452C284.439 19.4341 287.579 20.7859 290.652 22.1982L290.861 21.7439C294.01 23.191 297.089 24.7015 300.095 26.2726L299.864 26.7157C302.926 28.3162 305.911 29.9796 308.814 31.703L309.07 31.273C312.047 33.0401 314.94 34.8703 317.743 36.7604L317.463 37.175C320.335 39.111 323.111 41.1099 325.788 43.1683L326.093 42.7719C328.842 44.8854 331.487 47.0617 334.022 49.2972L333.692 49.6722C336.286 51.96 338.765 54.3095 341.123 56.7169L341.48 56.3671C343.908 58.8462 346.208 61.3869 348.375 63.9848L347.99 64.305C350.202 66.9573 352.273 69.669 354.196 72.4356L354.607 72.1502C356.583 74.9936 358.406 77.8954 360.066 80.8505L359.63 81.0954C361.315 84.0943 362.832 87.1478 364.174 90.2508L364.633 90.0524C366 93.2135 367.186 96.4263 368.184 99.6854L367.706 99.8317C368.704 103.095 369.512 106.404 370.122 109.754L370.614 109.665Z" stroke="black" stroke-dasharray="10 10"/>
</svg>
