<svg width="112" height="112" viewBox="0 0 112 112" fill="none" xmlns="http://www.w3.org/2000/svg">
<path d="M45.7799 38.4755L40.1589 73.4546H49.1434L54.761 38.4755H45.7799ZM72.8805 52.724C69.7408 51.1736 67.8161 50.1271 67.8161 48.5414C67.8545 47.0995 69.4437 45.6224 72.9926 45.6224C75.9115 45.5491 78.057 46.235 79.6846 46.9176L80.5 47.2815L81.7214 39.963C79.9468 39.277 77.133 38.5211 73.6574 38.5211C64.785 38.5211 58.5375 43.1341 58.4987 49.7317C58.4254 54.6004 62.9716 57.3021 66.3739 58.9228C69.8494 60.5853 71.0325 61.6632 71.0325 63.1404C70.9941 65.4083 68.2222 66.4547 65.6357 66.4547C62.0518 66.4547 60.1267 65.9158 57.2043 64.6521L56.0212 64.1131L54.7648 71.7188C56.8753 72.657 60.7567 73.4827 64.7854 73.5249C74.2144 73.5249 80.3499 68.9818 80.427 61.9504C80.4577 58.0932 78.0605 55.139 72.8805 52.724ZM104.755 38.5837H97.8038C95.6618 38.5837 94.0341 39.1998 93.1067 41.3979L79.761 73.4546H89.19L91.7869 66.5142H102.336L103.684 73.4827H112L104.755 38.5837ZM94.4019 59.5101C94.5838 59.5278 98.021 48.1805 98.021 48.1805L100.758 59.5101C100.758 59.5101 96.1765 59.5101 94.4019 59.5101ZM32.6515 38.4755L23.8489 62.2406L22.89 57.5539C21.2624 52.1463 16.1596 46.27 10.4648 43.351L18.5254 73.4197H28.0316L42.1577 38.4793H32.6515V38.4755Z" fill="#2394BC"/>
<path d="M19.9291 42.9867C19.2431 40.3195 17.0554 38.5207 14.0843 38.4823H0.143568L0 39.1295C10.8747 41.8105 20.0024 50.0599 22.9636 57.8195L19.9291 42.9867Z" fill="#EFC75E"/>
</svg>
