<svg width="112" height="112" viewBox="0 0 112 112" fill="none" xmlns="http://www.w3.org/2000/svg">
<g clip-path="url(#clip0)">
<path d="M111.959 57.7218C111.811 56.8661 111.09 56.3526 110.047 56.3412C109.725 56.3366 109.405 56.3686 109.093 56.3344C108.477 56.2705 108.315 56.4759 108.319 56.9642C108.349 59.3603 108.34 61.7542 108.331 64.1435C108.324 65.3963 107.101 66.6834 105.631 67.0097C101.067 68.0115 96.5074 69.0293 91.9388 70.022C91.4253 70.1338 90.8845 70.1909 90.3619 70.1863C90.1337 70.1863 89.8188 70.0129 89.7206 69.844C89.6567 69.7322 89.8575 69.4606 90.015 69.3214C90.2227 69.1526 90.4874 69.0179 90.759 68.9244C91.5965 68.6254 92.4477 68.3538 93.2943 68.0732C96.6831 66.9458 100.079 65.8322 103.463 64.698C104.99 64.1823 105.814 63.1645 105.839 61.8797C105.916 57.7173 105.877 53.5549 105.859 49.3879C105.859 48.7283 105.517 48.1784 104.732 47.8931C103.828 47.5691 103.034 47.8269 102.249 48.2012C97.4522 50.4901 92.6576 52.7744 87.8562 55.0587C86.4436 55.7319 85.6563 56.7063 85.6632 58.0938C85.6791 62.0303 85.6677 65.96 85.6723 69.8919C85.6723 70.0882 85.6928 70.289 85.7544 70.4761C86.2268 71.8134 87.4523 72.5802 89.1455 72.5802C92.5207 72.5893 95.9072 72.5847 99.2846 72.5847C102.651 72.5847 106.005 72.5893 109.371 72.5802C110.101 72.5802 110.775 72.4296 111.322 71.9777C112.032 71.4072 111.996 70.6815 111.996 69.9581C112.002 66.1243 112.002 62.295 111.998 58.4544C112.005 58.2148 112 57.9637 111.959 57.7218ZM97.9245 56.4918C98.2646 55.6087 99.0062 55.0564 100.138 54.9149C100.887 54.8191 101.539 55.2824 101.647 55.9578C101.809 56.9984 100.508 58.2079 99.223 58.2034C98.1505 58.2034 97.5526 57.4526 97.9245 56.4918Z" fill="#E2B221"/>
<path d="M17.3708 41.2752C17.3708 42.4892 17.3708 43.6782 17.3708 44.8785C16.4512 44.8785 15.5954 44.8785 14.6735 44.8785C14.6735 43.6531 14.6735 42.4641 14.6735 41.2638C14.1737 41.2638 13.7401 41.2638 13.2632 41.2638C13.2632 44.2692 13.2632 47.2222 13.2632 50.182C13.7561 50.182 14.2011 50.182 14.7168 50.182C14.7168 48.831 14.7168 47.5166 14.7168 46.1884C15.6297 46.1884 16.474 46.1884 17.38 46.1884C17.38 47.5348 17.38 48.8515 17.38 50.1865C17.8934 50.1865 18.3384 50.1865 18.8154 50.1865C18.8154 47.2016 18.8154 44.2441 18.8154 41.2752C18.327 41.2752 17.882 41.2752 17.3708 41.2752Z" fill="#E2B221"/>
<path d="M53.2468 65.8231C52.8224 63.7031 51.2113 62.416 48.6394 62.2038C47.6262 62.1262 46.5947 62.1901 45.5016 62.1901C45.5016 60.3211 45.5016 58.4316 45.5016 56.5466C44.7257 56.5466 44.0229 56.5466 43.3017 56.5466C43.3017 61.7405 43.3017 66.8979 43.3017 72.2379C44.9288 72.2379 46.5011 72.3314 48.0529 72.2128C50.3783 72.0393 52.1515 71.1151 52.9821 69.2187C53.4659 68.1188 53.475 66.9732 53.2468 65.8231ZM49.8443 68.201C49.4358 69.9353 47.6604 70.7523 45.5199 70.2457C45.5199 68.3196 45.5107 66.4255 45.5381 64.5269C45.5381 64.4014 45.7572 64.196 45.9147 64.1663C48.0552 63.7122 49.486 64.4242 49.858 66.211C49.9904 66.8523 49.9949 67.5574 49.8443 68.201Z" fill="#E2B221"/>
<path d="M9.82406 36.4669C9.04588 36.4669 8.27227 36.4692 7.49638 36.4669C6.40101 36.4624 5.49276 36.8047 4.74653 37.4642C2.1838 39.7325 2.857 44.041 6.26637 44.9607C5.12078 46.6813 3.98205 48.3974 2.78854 50.1957C3.27462 50.1957 3.64887 50.1706 4.014 50.2025C4.49779 50.2459 4.74653 50.0884 4.97017 49.7301C5.82365 48.3449 6.72962 46.9803 7.61505 45.6065C8.02353 44.9766 8.07374 44.9584 9.03676 45.1432C9.03676 46.8046 9.03676 48.4796 9.03676 50.1523C9.61868 50.1523 10.123 50.1523 10.6707 50.1523C10.6707 49.8648 10.6707 49.6229 10.6707 49.3764C10.6707 45.3007 10.6707 41.2227 10.6707 37.1447C10.6707 36.4669 10.6684 36.4692 9.82406 36.4669ZM8.99112 43.7056C7.87976 43.6941 6.72049 43.9703 5.87386 43.1373C4.90399 42.1857 4.62786 41.0858 4.98614 39.8786C5.01581 39.7827 5.06373 39.6915 5.10253 39.6002C5.82365 37.9411 6.77526 37.4802 8.99112 37.7563C8.99112 39.7394 8.99112 41.6951 8.99112 43.7056Z" fill="#E2B221"/>
<path d="M50.2117 48.9017C47.7904 49.7095 46.12 48.9793 45.6818 46.8707C45.4513 45.7776 45.5335 44.6776 45.9329 43.6119C46.4714 42.156 47.5417 41.7224 49.3217 42.2039C49.3559 42.213 49.397 42.197 49.4586 42.1879C49.6366 41.9666 49.8192 41.7338 50.0177 41.4851C48.5481 40.5198 46.533 40.7502 45.4377 41.9688C44.591 42.909 44.2601 43.9976 44.1529 45.1409C44.0319 46.453 44.1939 47.7264 45.0611 48.8788C45.9694 50.0838 47.544 50.6497 49.1642 50.2709C50.3075 50.0016 50.4353 49.8829 50.2117 48.9017Z" fill="#E2B221"/>
<path d="M11.878 70.3848C11.878 65.7523 11.878 61.1722 11.878 56.5511C9.04142 56.5511 6.29385 56.5511 3.61474 56.5511C3.50064 58.8993 3.44587 61.2088 3.25875 63.5136C3.09216 65.5583 2.64031 67.5642 1.73663 69.4948C1.43768 70.1315 1.0794 70.5514 0.166589 70.3985C0.118666 70.3917 0.0593329 70.4282 0 70.451C0 72.1488 0 73.8375 0 75.5262C0.832943 75.5262 1.61796 75.5262 2.46688 75.5262C2.46688 74.3784 2.46688 73.2761 2.46688 72.1762C5.46319 72.1762 8.40017 72.1762 11.401 72.1762C11.401 73.3127 11.401 74.4126 11.401 75.5354C12.2363 75.5354 13.003 75.5354 13.7972 75.5354C13.7972 73.8193 13.7972 72.126 13.7972 70.3848C13.1377 70.3848 12.5284 70.3848 11.878 70.3848ZM9.20117 70.3666C7.34815 70.3666 5.51568 70.3666 3.79274 70.3666C4.25371 69.2118 4.81738 68.0754 5.15968 66.8956C5.84657 64.5245 5.84201 62.0919 5.86027 59.6661C5.86483 59.2918 5.86027 58.913 5.86027 58.5023C6.98075 58.5023 8.06699 58.5023 9.20345 58.5023C9.20117 62.4274 9.20117 66.3639 9.20117 70.3666Z" fill="#E2B221"/>
<path d="M35.1001 49.0226C34.6825 49.1435 34.2808 49.2895 33.8609 49.374C32.6902 49.6113 31.855 49.3512 31.41 48.6141C30.8874 47.7515 30.9125 46.825 30.9445 45.8551C32.4461 45.8551 33.8883 45.8551 35.3602 45.8551C35.4561 44.4037 35.2781 43.0436 34.3584 41.8068C33.5506 40.7205 32.1517 40.5471 31.0403 41.4393C30.6227 41.7725 30.2713 42.1993 30.0248 42.6329C29.3357 43.84 29.0732 45.1408 29.2352 46.4598C29.3379 47.2791 29.5639 48.112 29.913 48.8833C30.4196 50.0175 31.5903 50.5972 32.9435 50.4534C33.5985 50.3849 34.2534 50.2001 34.8696 49.9856C35.5565 49.7482 35.5747 49.5292 35.1001 49.0226ZM31.677 42.4822C32.1745 41.8638 32.996 41.8821 33.4365 42.5302C33.9294 43.249 33.9887 44.0432 33.9682 44.8761C32.8979 44.8761 31.9189 44.8761 30.892 44.8761C30.9399 44.0044 31.1065 43.1965 31.677 42.4822Z" fill="#E2B221"/>
<path d="M39.1597 56.8432C39.0638 56.7268 38.9429 56.5511 38.8219 56.5465C38.094 56.5168 37.3637 56.5282 36.5582 56.5282C36.5582 58.6939 36.5582 60.8299 36.5582 62.9773C34.9744 62.9773 33.4683 62.9773 31.8343 62.9773C31.8343 60.8116 31.8343 58.6893 31.8343 56.5396C30.9512 56.5396 30.1456 56.5396 29.315 56.5396C29.315 61.7997 29.315 67.0324 29.315 72.2903C30.1707 72.2903 30.99 72.2903 31.8663 72.2903C31.8663 72.062 31.8663 71.8658 31.8663 71.6741C31.8663 69.8348 31.864 68.0069 31.8663 66.1698C31.8663 65.1589 31.8663 65.1589 33.0758 65.1589C34.2213 65.1589 35.3669 65.1589 36.5764 65.1589C36.5764 67.5801 36.5764 69.9283 36.5764 72.2948C37.4641 72.2948 38.2857 72.2948 39.1368 72.2948C39.1483 72.1214 39.1665 71.973 39.1665 71.8316C39.1665 66.8978 39.1665 61.964 39.1665 57.0348C39.1665 56.9687 39.1985 56.8865 39.1597 56.8432Z" fill="#E2B221"/>
<path d="M40.5677 44.7621C41.4486 43.7489 42.2906 42.7151 43.1464 41.6905C43.2514 41.5649 43.3426 41.4326 43.4887 41.2409C43.2126 41.2409 43.0505 41.2592 42.8976 41.2386C42.2724 41.1542 41.8913 41.3573 41.5512 41.8046C40.8005 42.7904 39.9675 43.7306 39.1642 44.6868C39.073 44.794 38.9589 44.8876 38.7398 45.0998C38.7398 43.7283 38.7398 42.5097 38.7398 41.266C38.2469 41.266 37.8156 41.266 37.3455 41.266C37.3455 44.2007 37.3455 47.0875 37.3455 49.972C37.8247 49.972 38.256 49.972 38.7603 49.972C38.7603 48.9382 38.7375 47.925 38.774 46.9163C38.7877 46.5695 38.9474 46.2226 39.0387 45.8757C39.3103 46.0423 39.4267 46.1906 39.5294 46.3458C40.2573 47.4389 40.9762 48.532 41.711 49.6182C41.8068 49.762 41.9711 49.956 42.1263 49.9765C42.5416 50.029 42.9684 49.9948 43.4819 49.9948C42.4595 48.4384 41.5056 46.9688 40.5289 45.506C40.3441 45.2322 40.3304 45.0336 40.5677 44.7621Z" fill="#E2B221"/>
<path d="M74.0885 56.4964C73.6777 56.4827 73.4929 56.5991 73.3468 56.9117C72.3587 59.0888 71.3455 61.2544 70.3391 63.4247C69.8987 64.374 69.4422 65.3233 68.9973 66.2726C68.9539 66.2681 68.9197 66.259 68.8763 66.2544C68.8763 63.023 68.8763 59.7917 68.8763 56.5352C67.9909 56.5352 67.1693 56.5352 66.3273 56.5352C66.3273 61.8044 66.3273 67.0554 66.3273 72.3086C67.1693 72.3086 67.9635 72.3086 68.8307 72.3086C70.4212 68.8719 72.0118 65.4214 73.6161 61.9413C73.6161 65.4055 73.6161 68.8536 73.6161 72.2995C74.6156 72.2995 75.5421 72.2995 76.496 72.2995C76.496 67.0303 76.496 61.7976 76.496 56.5078C75.6676 56.5078 74.8781 56.5306 74.0885 56.4964Z" fill="#E2B221"/>
<path d="M25.8212 70.0425C25.0384 70.2844 24.3333 70.5605 23.5893 70.7134C21.1727 71.2086 19.5935 70.5399 18.9043 68.7873C18.3726 67.4409 18.3932 66.0512 18.3703 64.5838C21.0175 64.5838 23.5848 64.5838 26.257 64.5838C26.1475 63.3629 26.1361 62.1717 25.9147 61.0193C25.6341 59.5748 25.0772 58.1896 23.9248 57.0257C22.9047 55.9965 21.677 55.6976 20.1458 56.1129C18.5552 56.5442 17.5853 57.5437 16.9327 58.7281C15.0203 62.2037 14.856 65.7842 16.3211 69.3944C16.7615 70.4852 17.5077 71.4345 18.7492 72.0415C20.8304 73.0662 24.1964 72.7102 26.3073 71.2337C26.1407 70.8229 25.9718 70.4076 25.8212 70.0425ZM19.5616 58.8719C19.9335 58.3493 20.4287 57.9226 21.2594 57.9614C22.0718 58.0047 22.5533 58.4292 22.8796 58.9814C23.6008 60.2206 23.7217 61.5487 23.7149 62.9271C21.8984 62.9271 20.1435 62.9271 18.295 62.9271C18.4319 61.4689 18.6875 60.1019 19.5616 58.8719Z" fill="#E2B221"/>
<path d="M27.0057 48.9976C27.0057 46.4052 27.0057 43.8448 27.0057 41.2638C25.4379 41.2638 23.934 41.2638 22.3435 41.2638C22.3435 41.8434 22.364 42.3637 22.3412 42.8863C22.2636 44.7028 22.1974 46.5216 21.4398 48.2605C21.2527 48.6895 21.1135 49.1482 20.39 49.0524C20.39 50.0199 20.39 50.9419 20.39 51.8593C20.8465 51.8593 21.2549 51.8593 21.7342 51.8593C21.7342 51.2317 21.7342 50.6338 21.7342 50.0359C23.4411 50.0359 25.0751 50.0359 26.7843 50.0359C26.7843 50.668 26.7843 51.2659 26.7843 51.8501C27.2635 51.8501 27.6675 51.8501 28.0554 51.8501C28.0554 50.8826 28.0554 49.9606 28.0554 49.0387C27.6903 49.025 27.3799 49.0113 27.0057 48.9976ZM25.5338 48.9976C24.4703 48.9976 23.4708 48.9976 22.3937 48.9976C23.756 46.889 23.5712 44.6229 23.6693 42.3614C24.2923 42.3614 24.8948 42.3614 25.5338 42.3614C25.5338 44.5704 25.5338 46.7589 25.5338 48.9976Z" fill="#E2B221"/>
<path d="M55.6063 56.5305C55.6063 61.8112 55.6063 67.053 55.6131 72.2971C56.3981 72.2971 57.1444 72.2971 57.9431 72.2971C57.9431 67.5688 57.9431 62.8746 57.9431 58.1166C60.3438 58.1166 62.6988 58.1166 65.047 58.1166C65.047 57.5529 65.047 57.0531 65.047 56.5305C61.8933 56.5305 58.7806 56.5305 55.6063 56.5305Z" fill="#E2B221"/>
</g>
<defs>
<clipPath id="clip0">
<rect width="112" height="112" rx="20" fill="white"/>
</clipPath>
</defs>
</svg>
