<svg width="271" height="174" viewBox="0 0 271 174" fill="none" xmlns="http://www.w3.org/2000/svg">
<path d="M270 103C270 117.534 265.882 129.148 258.723 138.407C251.557 147.673 241.321 154.611 229.039 159.742C204.461 170.01 171.794 173 139.5 173C107.189 173 72.3879 171.508 45.6746 162.729C32.3231 158.341 21.0309 152.144 13.0792 143.439C5.13805 134.745 0.5 123.518 0.5 109C0.5 79.9479 19.088 52.8292 45.8169 32.9481C72.5385 13.0725 107.311 0.5 139.5 0.5C182.418 0.500244 215.043 11.5933 236.929 29.9301C258.807 48.2603 270 73.8656 270 103Z" stroke="white"/>
</svg>
