<svg width="723" height="263" viewBox="0 0 723 263" fill="none" xmlns="http://www.w3.org/2000/svg">
<g clip-path="url(#clip0)">
<path d="M260 41.2657C232.776 17.7094 194.13 3 151.263 3C68.8272 3 2 57.3974 2 124.5C2 191.603 68.8272 246 151.263 246C188.341 246 222.262 234.995 248.364 216.779" stroke="black" stroke-dasharray="10 10"/>
<path d="M501 34.5683C469.37 20.3601 430.639 12 388.804 12C339.814 12 295.083 23.4635 261.025 42.3572M501 232.432C469.37 246.64 430.639 255 388.804 255C332.763 255 282.294 239.999 247 216.034" stroke="black" stroke-dasharray="10 10"/>
<path d="M500 34.8025C522.606 20.452 550.342 12 580.316 12C656.357 12 718 66.3974 718 133.5C718 200.603 656.357 255 580.316 255C550.342 255 522.606 246.548 500 232.198" stroke="black" stroke-dasharray="10 10"/>
</g>
<defs>
<clipPath id="clip0">
<rect x="-192" y="-14102" width="1920" height="23990" fill="white"/>
</clipPath>
</defs>
</svg>
