<svg width="734" height="291" viewBox="0 0 734 291" fill="none" xmlns="http://www.w3.org/2000/svg">
<g clip-path="url(#clip0)">
<path d="M267 49.2577C239.776 23.8595 201.13 8 158.263 8C75.8272 8 9 66.6507 9 139C9 211.349 75.8272 270 158.263 270C195.341 270 229.262 258.135 255.364 238.494" stroke="black" stroke-dasharray="10 10"/>
<path d="M508 42.3329C476.37 27.0137 437.639 18 395.804 18C346.814 18 302.083 30.3598 268.025 50.7308M508 255.667C476.37 270.986 437.639 280 395.804 280C339.763 280 289.294 263.826 254 237.988" stroke="black" stroke-dasharray="10 10"/>
<path d="M507 42.5854C529.606 27.1128 557.342 18 587.316 18C663.357 18 725 76.6507 725 149C725 221.349 663.357 280 587.316 280C557.342 280 529.606 270.887 507 255.415" stroke="black" stroke-dasharray="10 10"/>
</g>
<defs>
<clipPath id="clip0">
<rect x="-1135" y="-14461" width="1920" height="23990" fill="white"/>
</clipPath>
</defs>
</svg>
