<svg width="855" height="316" viewBox="0 0 855 316" fill="none" xmlns="http://www.w3.org/2000/svg">
<g clip-path="url(#clip0)">
<path d="M319 51.2968C285.867 22.7966 238.832 5 186.661 5C86.3324 5 5 70.8141 5 152C5 233.186 86.3324 299 186.661 299C231.787 299 273.07 285.685 304.838 263.646" stroke="black" stroke-dasharray="10 10"/>
<path d="M545 43.3049C515.362 26.1147 479.072 16 439.871 16C393.968 16 352.054 29.8694 320.141 52.7285M545 282.695C515.362 299.885 479.072 310 439.871 310C387.361 310 340.071 291.851 307 262.856" stroke="black" stroke-dasharray="10 10"/>
<path d="M544 43.5882C575.627 26.2258 614.433 16 656.368 16C762.756 16 849 81.8141 849 163C849 244.186 762.756 310 656.368 310C614.433 310 575.627 299.774 544 282.412" stroke="black" stroke-dasharray="10 10"/>
</g>
<defs>
<clipPath id="clip0">
<rect x="-935" y="-14118" width="1920" height="23990" fill="white"/>
</clipPath>
</defs>
</svg>
