<svg width="861" height="319" viewBox="0 0 861 319" fill="none" xmlns="http://www.w3.org/2000/svg">
<g clip-path="url(#clip0)">
<path d="M324 53.2968C290.867 24.7966 243.832 7 191.661 7C91.3324 7 10 72.8141 10 154C10 235.186 91.3324 301 191.661 301C236.787 301 278.07 287.685 309.838 265.646" stroke="black" stroke-dasharray="10 10"/>
<path d="M550 45.3049C520.362 28.1147 484.072 18 444.871 18C398.968 18 357.054 31.8694 325.141 54.7285M550 284.695C520.362 301.885 484.072 312 444.871 312C392.361 312 345.071 293.851 312 264.856" stroke="black" stroke-dasharray="10 10"/>
<path d="M549 45.5882C580.627 28.2258 619.433 18 661.368 18C767.756 18 854 83.8141 854 165C854 246.186 767.756 312 661.368 312C619.433 312 580.627 301.774 549 284.412" stroke="black" stroke-dasharray="10 10"/>
</g>
<defs>
<clipPath id="clip0">
<rect x="-260" y="-14440" width="1920" height="23990" fill="white"/>
</clipPath>
</defs>
</svg>
