<svg width="56" height="55" viewBox="0 0 56 55" fill="none" xmlns="http://www.w3.org/2000/svg">
<g clip-path="url(#clip0)">
<path d="M27.9992 0.00534786C12.8681 -0.287671 0.347435 11.4971 0.00195312 26.3569C0.0414336 33.9212 3.45174 41.0892 9.33434 45.9716V53.8543C9.33434 54.487 9.85666 55 10.5009 55C10.7195 55 10.9338 54.9396 11.1192 54.8259L17.6215 50.8365C20.9344 52.081 24.4523 52.7156 27.9992 52.7086C43.1303 53.0016 55.651 41.2169 55.9965 26.357C55.651 11.4971 43.1303 -0.287671 27.9992 0.00534786Z" fill="#2196F3"/>
<path d="M46.4317 18.7951C46.0846 18.3382 45.4482 18.2014 44.9386 18.4743L32.8064 24.9705L25.2589 18.614C24.7961 18.2243 24.1058 18.2502 23.6747 18.6736L9.67611 32.4223C9.22192 32.871 9.22411 33.5965 9.68114 34.0426C10.0465 34.3993 10.6068 34.4783 11.0597 34.2371L23.1918 27.7409L30.7464 34.0996C31.2092 34.4893 31.8995 34.4634 32.3305 34.04L46.3291 20.2914C46.7371 19.8869 46.7808 19.2497 46.4317 18.7951Z" fill="#FAFAFA"/>
</g>
<defs>
<clipPath id="clip0">
<rect width="56" height="55" fill="white"/>
</clipPath>
</defs>
</svg>
