<svg width="56" height="55" viewBox="0 0 56 55" fill="none" xmlns="http://www.w3.org/2000/svg">
<g clip-path="url(#clip0)">
<path d="M54.0285 31.8381C55.6992 18.0263 53.2259 9.30646 48.7645 5.3625L48.7668 5.36021C41.5662 -1.37501 17.2482 -2.37188 8.63352 5.66271C4.76485 9.59292 3.40219 15.361 3.25285 22.5019C3.10352 29.645 2.92619 43.0261 15.6219 46.6561H15.6335L15.6219 52.1996C15.6219 52.1996 15.5355 54.4454 16.9962 54.8969C18.6669 55.4286 19.4228 54.3858 24.6192 48.29C33.3085 49.0302 39.9818 47.3344 40.7402 47.0869C42.4949 46.5094 52.4232 45.2192 54.0285 31.8381ZM25.4755 44.3896C25.4755 44.3896 19.9759 51.1248 18.2655 52.8733C17.7055 53.4417 17.0919 53.389 17.1012 52.2615C17.1012 51.5213 17.1432 43.0581 17.1432 43.0581C6.37952 40.0285 7.01419 28.6344 7.13085 22.6738C7.24752 16.7108 8.35819 11.8273 11.6342 8.53875C19.1919 1.57895 40.5115 3.135 45.9435 8.14917C52.5842 13.931 50.2205 30.266 50.2345 30.8229C48.8695 41.9925 40.8242 42.7006 39.3448 43.1842C38.7125 43.3904 32.8442 44.8731 25.4755 44.3896Z" fill="#8E24AA"/>
<path d="M28.5185 9.84717C27.6201 9.84717 27.6201 11.2222 28.5185 11.2336C35.4881 11.2863 41.2281 16.0576 41.2911 24.8095C41.2911 25.733 42.6678 25.7215 42.6561 24.798H42.6538C42.5791 15.3678 36.3118 9.89988 28.5185 9.84717Z" fill="#8E24AA"/>
<path d="M37.6859 23.359C37.6649 24.2711 39.0392 24.3147 39.0509 23.3911C39.1652 18.1913 35.9009 13.9082 29.7665 13.4567C28.8682 13.3926 28.7748 14.779 29.6709 14.8432C34.9909 15.2397 37.7932 18.8055 37.6859 23.359Z" fill="#8E24AA"/>
<path d="M36.2158 29.2738C35.0632 28.6184 33.8895 29.0263 33.4042 29.6703L32.3892 30.9605C31.8735 31.6159 30.9098 31.5288 30.9098 31.5288C23.8772 29.7024 21.9965 22.4745 21.9965 22.4745C21.9965 22.4745 21.9102 21.4959 22.5542 20.9711L23.8235 19.9399C24.4582 19.4449 24.8595 18.2532 24.2132 17.0822C22.4865 14.0182 21.3268 12.9617 20.7365 12.1505C20.1158 11.3874 19.1825 11.2155 18.2118 11.7311H18.1908C16.1725 12.8907 13.9628 15.0609 14.6698 17.2953C15.8762 19.6511 18.0928 27.1609 25.1582 32.8351C28.4785 35.5186 33.7332 38.2686 35.9638 38.9034L35.9848 38.9355C38.1828 39.6551 40.3202 37.4001 41.4612 35.3582V35.3422C41.9675 34.3544 41.7995 33.4194 41.0598 32.8076C39.7485 31.5517 37.7698 30.1653 36.2158 29.2738Z" fill="#8E24AA"/>
<path d="M30.7281 18.5718C32.9705 18.7001 34.0578 19.8505 34.1745 22.2132C34.2165 23.1368 35.5815 23.0726 35.5395 22.1491C35.3901 19.0645 33.7521 17.3457 30.8028 17.1853C29.9045 17.1326 29.8205 18.5191 30.7281 18.5718Z" fill="#8E24AA"/>
</g>
<defs>
<clipPath id="clip0">
<rect width="56" height="55" fill="white"/>
</clipPath>
</defs>
</svg>
