<svg width="56" height="56" viewBox="0 0 56 56" fill="none" xmlns="http://www.w3.org/2000/svg">
<path d="M28.007 0H27.993C12.5545 0 0 12.558 0 28C0 34.125 1.974 39.802 5.3305 44.4115L1.841 54.8135L12.6035 51.373C17.031 54.306 22.3125 56 28.007 56C43.4455 56 56 43.4385 56 28C56 12.5615 43.4455 0 28.007 0Z" fill="#4CAF50"/>
<path d="M44.2999 39.5394C43.6244 41.4469 40.9434 43.0289 38.8049 43.4909C37.3419 43.8024 35.4309 44.0509 28.9979 41.3839C20.7694 37.9749 15.4704 29.6134 15.0574 29.0709C14.6619 28.5284 11.7324 24.6434 11.7324 20.6254C11.7324 16.6074 13.7729 14.6509 14.5954 13.8109C15.2709 13.1214 16.3874 12.8064 17.4584 12.8064C17.8049 12.8064 18.1164 12.8239 18.3964 12.8379C19.2189 12.8729 19.6319 12.9219 20.1744 14.2204C20.8499 15.8479 22.4949 19.8659 22.6909 20.2789C22.8904 20.6919 23.0899 21.2519 22.8099 21.7944C22.5474 22.3544 22.3164 22.6029 21.9034 23.0789C21.4904 23.5549 21.0984 23.9189 20.6854 24.4299C20.3074 24.8744 19.8804 25.3504 20.3564 26.1729C20.8324 26.9779 22.4774 29.6624 24.8994 31.8184C28.0249 34.6009 30.5589 35.4899 31.4654 35.8679C32.1409 36.1479 32.9459 36.0814 33.4394 35.5564C34.0659 34.8809 34.8394 33.7609 35.6269 32.6584C36.1869 31.8674 36.8939 31.7694 37.6359 32.0494C38.3919 32.3119 42.3924 34.2894 43.2149 34.6989C44.0374 35.1119 44.5799 35.3079 44.7794 35.6544C44.9754 36.0009 44.9754 37.6284 44.2999 39.5394Z" fill="#FAFAFA"/>
</svg>
