<svg width="254" height="172" viewBox="0 0 254 172" fill="none" xmlns="http://www.w3.org/2000/svg">
<path d="M251.903 70.3542C252.824 73.7464 253.451 77.2082 253.765 80.7271L253.267 80.7716C253.422 82.501 253.5 84.2443 253.5 86C253.5 87.7557 253.422 89.499 253.267 91.2284L253.765 91.2729C253.451 94.7918 252.824 98.2536 251.903 101.646L251.421 101.515C250.512 104.863 249.314 108.145 247.845 111.346L248.299 111.555C246.852 114.709 245.143 117.785 243.191 120.772L242.772 120.498C240.893 123.374 238.786 126.167 236.465 128.867L236.844 129.193C234.593 131.812 232.144 134.344 229.51 136.778L229.171 136.411C226.647 138.743 223.953 140.986 221.1 143.131L221.4 143.53C218.639 145.607 215.73 147.592 212.685 149.478L212.422 149.053C209.493 150.866 206.438 152.588 203.266 154.211L203.494 154.656C200.412 156.233 197.22 157.718 193.928 159.103L193.734 158.642C190.55 159.981 187.271 161.228 183.906 162.376L184.067 162.85C180.782 163.97 177.415 164.997 173.974 165.926L173.844 165.443C170.498 166.346 167.081 167.154 163.601 167.865L163.701 168.354C160.293 169.05 156.824 169.651 153.301 170.153L153.231 169.658C149.797 170.148 146.311 170.544 142.78 170.841L142.822 171.339C139.35 171.631 135.835 171.829 132.282 171.927L132.268 171.427C130.521 171.476 128.765 171.5 127 171.5C125.235 171.5 123.479 171.476 121.732 171.427L121.718 171.927C118.165 171.829 114.65 171.631 111.178 171.339L111.22 170.841C107.689 170.544 104.203 170.148 100.769 169.658L100.699 170.153C97.176 169.651 93.7073 169.05 90.299 168.354L90.399 167.865C86.9189 167.154 83.5022 166.346 80.156 165.443L80.0258 165.926C76.5848 164.997 73.2178 163.97 69.9326 162.85L70.0941 162.376C66.7288 161.228 63.4498 159.981 60.2656 158.642L60.0717 159.103C56.7797 157.718 53.5882 156.233 50.5062 154.656L50.734 154.211C47.5618 152.588 44.5066 150.866 41.5785 149.053L41.3152 149.478C38.2701 147.592 35.3612 145.607 32.5995 143.53L32.9 143.131C30.047 140.986 27.3528 138.743 24.8294 136.411L24.4901 136.778C21.8562 134.344 19.4068 131.812 17.1558 129.193L17.535 128.867C15.2144 126.167 13.1069 123.374 11.2276 120.498L10.8091 120.772C8.8569 117.785 7.14849 114.709 5.70097 111.555L6.1554 111.346C4.68604 108.145 3.48807 104.863 2.57917 101.515L2.09663 101.646C1.1759 98.2536 0.549112 94.7918 0.234803 91.2729L0.732821 91.2284C0.578355 89.499 0.5 87.7557 0.5 86C0.5 84.2443 0.578355 82.501 0.732821 80.7716L0.234804 80.7271C0.549113 77.2082 1.1759 73.7464 2.09663 70.3542L2.57917 70.4852C3.48807 67.1366 4.68604 63.8554 6.1554 60.6537L5.70097 60.4452C7.14849 57.2911 8.8569 54.2149 10.8091 51.228L11.2276 51.5015C13.1069 48.6262 15.2144 45.8331 17.535 43.1327L17.1558 42.8069C19.4068 40.1876 21.8562 37.6562 24.4901 35.222L24.8294 35.5893C27.3527 33.2573 30.047 31.0145 32.9 28.8692L32.5995 28.4695C35.3612 26.3929 38.2701 24.4079 41.3152 22.5221L41.5784 22.9471C44.5066 21.1337 47.5618 19.4119 50.734 17.7887L50.5062 17.3436C53.5882 15.7665 56.7797 14.2824 60.0717 12.8975L60.2655 13.3583C63.4498 12.0187 66.7287 10.7719 70.094 9.62372L69.9326 9.1505C73.2178 8.02963 76.5848 7.00251 80.0258 6.07434L80.156 6.55709C83.5022 5.65449 86.9189 4.84568 90.399 4.1355L90.299 3.64559C93.7073 2.95004 97.176 2.34886 100.699 1.84654L100.769 2.34153C104.203 1.85178 107.689 1.45625 111.22 1.15911L111.178 0.660873C114.65 0.368728 118.165 0.171465 121.718 0.0730371L121.732 0.572845C123.479 0.52444 125.235 0.5 127 0.5C128.765 0.5 130.521 0.52444 132.268 0.572846L132.282 0.0730376C135.835 0.171466 139.35 0.368728 142.822 0.660873L142.78 1.15911C146.311 1.45625 149.797 1.85178 153.231 2.34153L153.301 1.84654C156.824 2.34886 160.293 2.95004 163.701 3.64559L163.601 4.13549C167.081 4.84568 170.498 5.65449 173.844 6.55709L173.974 6.07434C177.415 7.00251 180.782 8.02962 184.067 9.15049L183.906 9.62371C187.271 10.7719 190.55 12.0187 193.734 13.3583L193.928 12.8975C197.22 14.2824 200.412 15.7665 203.494 17.3436L203.266 17.7887C206.438 19.4119 209.493 21.1337 212.422 22.9471L212.685 22.5221C215.73 24.4079 218.639 26.3929 221.4 28.4695L221.1 28.8692C223.953 31.0144 226.647 33.2573 229.171 35.5892L229.51 35.222C232.144 37.6562 234.593 40.1876 236.844 42.8068L236.465 43.1327C238.786 45.8331 240.893 48.6262 242.772 51.5015L243.191 51.228C245.143 54.2149 246.852 57.2911 248.299 60.4452L247.845 60.6537C249.314 63.8554 250.512 67.1366 251.421 70.4852L251.903 70.3542Z" stroke="white" stroke-dasharray="10 10"/>
</svg>
