<svg width="290" height="206" viewBox="0 0 290 206" fill="none" xmlns="http://www.w3.org/2000/svg">
<path d="M288.55 88.3776C289.189 91.5722 289.622 94.8141 289.839 98.0961L289.34 98.129C289.446 99.7432 289.5 101.367 289.5 103C289.5 104.633 289.446 106.257 289.34 107.871L289.839 107.904C289.622 111.186 289.189 114.428 288.55 117.622L288.06 117.524C287.423 120.709 286.579 123.846 285.539 126.93L286.013 127.09C284.973 130.172 283.738 133.201 282.318 136.168L281.867 135.952C280.476 138.859 278.906 141.708 277.166 144.492L277.59 144.757C275.875 147.5 273.996 150.18 271.963 152.791L271.569 152.483C269.594 155.019 267.471 157.49 265.209 159.89L265.573 160.232C263.361 162.58 261.016 164.859 258.547 167.064L258.214 166.691C255.816 168.832 253.3 170.904 250.673 172.902L250.976 173.3C248.404 175.255 245.727 177.139 242.95 178.947L242.677 178.528C239.982 180.283 237.193 181.966 234.315 183.574L234.559 184.01C231.735 185.588 228.826 187.093 225.838 188.521L225.622 188.07C222.716 189.458 219.736 190.774 216.685 192.013L216.873 192.477C213.872 193.696 210.804 194.841 207.673 195.908L207.512 195.435C204.459 196.476 201.347 197.443 198.18 198.333L198.316 198.814C195.195 199.691 192.021 200.493 188.798 201.218L188.689 200.73C185.537 201.439 182.338 202.072 179.097 202.629L179.181 203.122C175.986 203.67 172.75 204.143 169.476 204.539L169.416 204.042C166.202 204.431 162.951 204.743 159.667 204.978L159.703 205.477C156.47 205.708 153.206 205.864 149.914 205.942L149.903 205.442C148.275 205.481 146.641 205.5 145 205.5C143.359 205.5 141.725 205.481 140.097 205.442L140.086 205.942C136.794 205.864 133.53 205.708 130.297 205.477L130.333 204.978C127.049 204.743 123.798 204.431 120.584 204.042L120.524 204.539C117.25 204.143 114.014 203.67 110.819 203.122L110.903 202.629C107.662 202.072 104.463 201.439 101.311 200.73L101.202 201.218C97.9791 200.493 94.8052 199.691 91.6844 198.814L91.8197 198.333C88.6526 197.443 85.5406 196.476 82.4881 195.435L82.3267 195.908C79.1962 194.841 76.128 193.696 73.127 192.477L73.3151 192.013C70.2644 190.774 67.2836 189.458 64.3779 188.07L64.1623 188.521C61.1744 187.093 58.2655 185.588 55.4411 184.01L55.685 183.574C52.8073 181.966 50.018 180.283 47.3231 178.528L47.0503 178.947C44.2733 177.139 41.5958 175.255 39.0242 173.3L39.3269 172.902C36.6995 170.904 34.1837 168.832 31.7862 166.691L31.4531 167.064C28.9839 164.859 26.6392 162.58 24.4268 160.232L24.7907 159.89C22.5289 157.49 20.4065 155.019 18.4314 152.483L18.0369 152.791C16.0035 150.18 14.1251 147.5 12.4104 144.757L12.8344 144.492C11.0943 141.708 9.52416 138.859 8.1332 135.952L7.68219 136.168C6.26201 133.201 5.02714 130.172 3.98736 127.09L4.46113 126.93C3.4209 123.846 2.57735 120.709 1.94026 117.524L1.44998 117.622C0.810819 114.428 0.378011 111.186 0.161446 107.904L0.660361 107.871C0.553853 106.257 0.5 104.633 0.5 103C0.5 101.367 0.553853 99.7432 0.660361 98.129L0.161446 98.0961C0.378011 94.8141 0.810819 91.5722 1.44998 88.3776L1.94026 88.4757C2.57735 85.2913 3.4209 82.1538 4.46113 79.0701L3.98736 78.9103C5.02714 75.8279 6.26201 72.7994 7.68219 69.8317L8.13321 70.0475C9.52417 67.1409 11.0943 64.2923 12.8344 61.5084L12.4104 61.2434C14.1251 58.5002 16.0035 55.82 18.0369 53.2093L18.4314 53.5165C20.4065 50.9807 22.5289 48.51 24.7907 46.1105L24.4268 45.7675C26.6392 43.4203 28.9839 41.1414 31.4531 38.9359L31.7862 39.3089C34.1837 37.1676 36.6995 35.0956 39.3269 33.0979L39.0242 32.6999C41.5958 30.7447 44.2733 28.8607 47.0502 27.0526L47.3231 27.4716C50.018 25.7168 52.8073 24.0336 55.6849 22.4261L55.4411 21.9896C58.2655 20.4118 61.1744 18.907 64.1623 17.4791L64.3779 17.9303C67.2836 16.5416 70.2644 15.2259 73.3151 13.9867L73.1269 13.5234C76.128 12.3044 79.1962 11.1594 82.3267 10.0919L82.4881 10.5652C85.5406 9.52428 88.6526 8.5572 91.8197 7.66722L91.6844 7.18587C94.8052 6.30889 97.9791 5.50663 101.202 4.78218L101.311 5.27001C104.463 4.56146 107.662 3.92752 110.903 3.37112L110.819 2.87833C114.014 2.32987 117.25 1.85658 120.524 1.46124L120.584 1.95763C123.798 1.56944 127.049 1.25658 130.333 1.02171L130.297 0.522986C133.53 0.291741 136.794 0.135922 140.086 0.0580467L140.097 0.557907C141.725 0.519404 143.359 0.5 145 0.5C146.641 0.5 148.275 0.519404 149.903 0.557907L149.914 0.0580467C153.206 0.135922 156.47 0.291741 159.703 0.522987L159.667 1.02171C162.951 1.25658 166.202 1.56944 169.416 1.95763L169.476 1.46124C172.75 1.85658 175.986 2.32987 179.181 2.87833L179.097 3.37112C182.338 3.92752 185.537 4.56146 188.689 5.27001L188.798 4.78218C192.021 5.50663 195.195 6.30889 198.316 7.18587L198.18 7.66723C201.347 8.5572 204.459 9.52428 207.512 10.5652L207.673 10.0919C210.804 11.1594 213.872 12.3044 216.873 13.5234L216.685 13.9867C219.736 15.2259 222.716 16.5416 225.622 17.9303L225.838 17.4791C228.826 18.907 231.734 20.4118 234.559 21.9896L234.315 22.4261C237.193 24.0336 239.982 25.7168 242.677 27.4716L242.95 27.0526C245.727 28.8607 248.404 30.7447 250.976 32.6999L250.673 33.0979C253.3 35.0956 255.816 37.1676 258.214 39.3088L258.547 38.9359C261.016 41.1413 263.361 43.4203 265.573 45.7675L265.209 46.1105C267.471 48.51 269.594 50.9807 271.569 53.5165L271.963 53.2093C273.996 55.82 275.875 58.5002 277.59 61.2434L277.166 61.5084C278.906 64.2923 280.476 67.1409 281.867 70.0475L282.318 69.8317C283.738 72.7994 284.973 75.8279 286.013 78.9103L285.539 79.0701C286.579 82.1538 287.423 85.2913 288.06 88.4757L288.55 88.3776Z" stroke="white" stroke-dasharray="10 10"/>
</svg>
