<svg width="67" height="65" viewBox="0 0 67 65" fill="none" xmlns="http://www.w3.org/2000/svg">
<g clip-path="url(#clip0)">
<path d="M63.8519 37.6268C65.8264 21.3036 62.9033 10.9984 57.6308 6.33739L57.6336 6.33468C49.1237 -1.62512 20.3843 -2.80324 10.2033 6.69218C5.63123 11.337 4.02081 18.1539 3.84432 26.593C3.66784 35.0349 3.45826 50.8489 18.4622 55.1389H18.476L18.4622 61.6903C18.4622 61.6903 18.3602 64.3445 20.0864 64.878C22.0609 65.5064 22.9543 64.2741 29.0954 57.0699C39.3647 57.9447 47.2513 55.9405 48.1475 55.648C50.2212 54.9655 61.9547 53.4407 63.8519 37.6268ZM30.1075 52.4603C30.1075 52.4603 23.6079 60.4201 21.5866 62.4866C20.9247 63.1582 20.1995 63.096 20.2105 61.7635C20.2105 60.8887 20.2602 50.8868 20.2602 50.8868C7.53947 47.3064 8.28954 33.8405 8.42741 26.7961C8.56529 19.7491 9.8779 13.9776 13.7495 10.0911C22.6813 1.86593 47.8773 3.70489 54.2969 9.63072C62.145 16.4638 59.3516 35.7689 59.3681 36.427C57.7549 49.6274 48.2468 50.4643 46.4985 51.0357C45.7512 51.2795 38.8159 53.0318 30.1075 52.4603Z" fill="#8E24AA"/>
<path d="M33.7035 11.6375C32.6418 11.6375 32.6418 13.2625 33.7035 13.276C41.9404 13.3383 48.724 18.977 48.7984 29.3202C48.7984 30.4116 50.4254 30.3981 50.4116 29.3066H50.4089C50.3206 18.1618 42.9138 11.6997 33.7035 11.6375Z" fill="#8E24AA"/>
<path d="M44.5379 27.6059C44.5131 28.6838 46.1373 28.7353 46.1511 27.6438C46.2862 21.4986 42.4283 16.4367 35.1787 15.9032C34.117 15.8274 34.0067 17.4659 35.0656 17.5417C41.3529 18.0103 44.6647 22.2244 44.5379 27.6059Z" fill="#8E24AA"/>
<path d="M42.8003 34.5962C41.4381 33.8216 40.051 34.3037 39.4775 35.0647L38.2779 36.5895C37.6685 37.3641 36.5296 37.2612 36.5296 37.2612C28.2183 35.1027 25.9957 26.5606 25.9957 26.5606C25.9957 26.5606 25.8937 25.4041 26.6547 24.7839L28.1549 23.5652C28.9049 22.9802 29.3792 21.5718 28.6154 20.1879C26.5748 16.5668 25.2043 15.3183 24.5066 14.3595C23.7731 13.4577 22.6701 13.2545 21.5229 13.8639H21.4981C19.1128 15.2343 16.5014 17.7991 17.3369 20.4397C18.7626 23.2239 21.3823 32.0991 29.7322 38.805C33.6562 41.9764 39.8663 45.2264 42.5025 45.9766L42.5273 46.0145C45.125 46.865 47.6509 44.2 48.9994 41.7868V41.7679C49.5978 40.6006 49.3992 39.4956 48.5251 38.7725C46.9753 37.2883 44.6369 35.6497 42.8003 34.5962Z" fill="#8E24AA"/>
<path d="M36.3144 21.9481C38.9645 22.0998 40.2495 23.4594 40.3874 26.2517C40.437 27.3431 42.0502 27.2673 42.0006 26.1758C41.8241 22.5304 39.8883 20.4992 36.4027 20.3096C35.341 20.2473 35.2417 21.8858 36.3144 21.9481Z" fill="#8E24AA"/>
</g>
<defs>
<clipPath id="clip0">
<rect width="66.1818" height="65" fill="white"/>
</clipPath>
</defs>
</svg>
