<svg width="65" height="38" viewBox="0 0 65 38" fill="none" xmlns="http://www.w3.org/2000/svg">
<path d="M53.9365 21.7425C52.8856 20.4154 53.1862 19.825 53.9365 18.6388C53.95 18.6252 62.6248 6.63812 63.5185 2.57292L63.524 2.57021C63.9681 1.08875 63.524 0 61.3762 0H54.2696C52.4604 0 51.6262 0.934375 51.1794 1.97979C51.1794 1.97979 47.561 10.641 42.4423 16.2554C40.7902 17.8777 40.0265 18.3977 39.1246 18.3977C38.6804 18.3977 37.9898 17.8777 37.9898 16.3962V2.57021C37.9898 0.793541 37.4833 0 35.9856 0H24.811C23.6762 0 23.0019 0.82875 23.0019 1.60063C23.0019 3.28521 25.5612 3.6725 25.8267 8.41208V18.6956C25.8267 20.949 25.4177 21.3633 24.5104 21.3633C22.0946 21.3633 16.231 12.6669 12.7562 2.71375C12.0548 0.782708 11.3696 0.00270814 9.54687 0.00270814H2.4375C0.408958 0.00270814 0 0.937083 0 1.9825C0 3.82958 2.41583 13.0135 11.2342 25.1469C17.1112 33.429 25.3879 37.9167 32.9171 37.9167C37.4427 37.9167 37.9952 36.92 37.9952 35.2056C37.9952 27.2919 37.5862 26.5444 39.8531 26.5444C40.904 26.5444 42.7131 27.0644 46.9381 31.0592C51.7671 35.796 52.5606 37.9167 55.2635 37.9167H62.3702C64.396 37.9167 65.4225 36.92 64.8321 34.9538C63.4806 30.8181 54.3481 22.3113 53.9365 21.7425Z" fill="#4B729F"/>
</svg>
