<svg width="65" height="65" viewBox="0 0 65 65" fill="none" xmlns="http://www.w3.org/2000/svg">
<path d="M23.3594 46.7188V41.6406C26.1595 41.6406 28.4375 39.3626 28.4375 36.5625V26.4062C28.4375 21.2337 24.8991 16.8837 20.1195 15.6173C22.0827 14.1334 23.3594 11.7863 23.3594 9.14062C23.3594 4.6607 19.7143 1.01562 15.2344 1.01562C10.7545 1.01562 7.10938 4.6607 7.10938 9.14062C7.10938 11.6777 8.27938 13.9445 10.1065 15.4365C4.93898 16.4145 1.01562 20.9574 1.01562 26.4062V29.4531C1.01562 32.2532 3.29367 34.5312 6.09375 34.5312H7.10938V38.5938V39.6094V59.4141C7.10938 61.9338 9.15992 63.9844 11.6797 63.9844C13.1229 63.9844 14.3965 63.2988 15.2344 62.2517C16.0723 63.2988 17.3459 63.9844 18.7891 63.9844C20.7726 63.9844 22.4473 62.7067 23.0791 60.9375H52.0782L63.9275 53.8281L52.0782 46.7188H23.3594ZM23.3594 54.8438H50.7812V58.9062H23.3594V54.8438ZM50.7812 48.75V52.8125H23.3594V48.75H50.7812ZM9.14062 9.14062C9.14062 5.77992 11.8737 3.04688 15.2344 3.04688C18.5951 3.04688 21.3281 5.77992 21.3281 9.14062C21.3281 12.5013 18.5951 15.2344 15.2344 15.2344C11.8737 15.2344 9.14062 12.5013 9.14062 9.14062ZM13.7109 34.5312C15.6711 34.5312 17.2656 32.9367 17.2656 30.9766C17.2656 29.0164 15.6711 27.4219 13.7109 27.4219H9.14062V25.3906H17.2656V30.9766V37.5781H9.14062V34.5312H13.7109ZM11.6797 61.9531C10.2802 61.9531 9.14062 60.8136 9.14062 59.4141V39.6094H14.2188V40.625V59.4141C14.2188 60.8136 13.0792 61.9531 11.6797 61.9531ZM21.3281 23.3594V59.4141C21.3281 60.8136 20.1886 61.9531 18.7891 61.9531C17.3895 61.9531 16.25 60.8136 16.25 59.4141V40.625V39.6094H19.2969V23.3594H7.10938V27.4219H5.07812V29.4531H13.7109C14.5509 29.4531 15.2344 30.1366 15.2344 30.9766C15.2344 31.8165 14.5509 32.5 13.7109 32.5H6.09375C4.41391 32.5 3.04688 31.133 3.04688 29.4531V26.4062C3.04688 21.3667 7.14797 17.2656 12.1875 17.2656H15.2344H17.2656C22.3052 17.2656 26.4062 21.3667 26.4062 26.4062V36.5625C26.4062 38.2423 25.0392 39.6094 23.3594 39.6094V23.3594H21.3281ZM52.8125 58.1283V49.528L59.9787 53.8281L52.8125 58.1283Z" fill="url(#paint0_linear)"/>
<path d="M49.7656 28.4375H33.5156V42.6562H49.7656V28.4375ZM47.7344 40.625H35.5469V30.4688H47.7344V40.625Z" fill="url(#paint1_linear)"/>
<path d="M49.7656 13.6234L54.5462 8.84283L53.1101 7.40674L49.7656 10.7512V10.156H33.5156V24.3748H49.7656V13.6234ZM35.5469 22.3435V12.1873H47.7344V12.7824L41.6406 18.8762L38.2962 15.5317L36.8601 16.9678L41.6406 21.7484L47.7344 15.6546V22.3435H35.5469Z" fill="url(#paint2_linear)"/>
<defs>
<linearGradient id="paint0_linear" x1="1.01563" y1="10.8014" x2="34.497" y2="10.8101" gradientUnits="userSpaceOnUse">
<stop stop-color="#02A5A2"/>
<stop offset="1" stop-color="#0471BF"/>
</linearGradient>
<linearGradient id="paint1_linear" x1="33.5156" y1="30.6472" x2="42.1638" y2="30.6498" gradientUnits="userSpaceOnUse">
<stop stop-color="#02A5A2"/>
<stop offset="1" stop-color="#0471BF"/>
</linearGradient>
<linearGradient id="paint2_linear" x1="33.5156" y1="10.0437" x2="44.708" y2="10.0473" gradientUnits="userSpaceOnUse">
<stop stop-color="#02A5A2"/>
<stop offset="1" stop-color="#0471BF"/>
</linearGradient>
</defs>
</svg>
