<svg width="65" height="65" viewBox="0 0 65 65" fill="none" xmlns="http://www.w3.org/2000/svg">
<path d="M24.6613 4.19355V4.69355H25.1613H63.9516C64.255 4.69355 64.5 4.93915 64.5 5.24194V34.5968C64.5 34.8996 64.255 35.1452 63.9516 35.1452H45.0806H44.5806V35.6452V39.8387V40.3387H45.0806H47.1774C47.4808 40.3387 47.7258 40.5843 47.7258 40.8871V44.0323V44.5323H48.2258H63.9516C64.255 44.5323 64.5 44.7779 64.5 45.0806V51.371C64.5 51.6738 64.255 51.9194 63.9516 51.9194H60.8064H60.3064V52.4194V64.5H59.2097V52.4194V51.9194H58.7097H6.29032H5.79032V52.4194V64.5H4.69355V52.4194V51.9194H4.19355H1.04839C0.745016 51.9194 0.5 51.6738 0.5 51.371V45.0806C0.5 44.7779 0.745014 44.5323 1.04839 44.5323H2.09677H2.59677V44.0323V1.04839C2.59677 0.745597 2.84179 0.5 3.14516 0.5H24.1129C24.4163 0.5 24.6613 0.745597 24.6613 1.04839V4.19355ZM62.9032 34.0484H63.4032V33.5484V6.29032V5.79032H62.9032H16.7742H16.2742V6.29032V33.5484V34.0484H16.7742H62.9032ZM31.4516 44.5323H31.9516V44.0323V40.8871C31.9516 40.5843 32.1966 40.3387 32.5 40.3387H34.5968H35.0968V39.8387V35.6452V35.1452H34.5968H25.1613H24.6613V35.6452V44.0323V44.5323H25.1613H31.4516ZM14.6774 8.8871H15.1774V8.3871V6.29032V5.79032H14.6774H8.3871H7.8871V6.29032V8.3871V8.8871H8.3871H14.6774ZM14.6774 17.2742H15.1774V16.7742V14.6774V14.1774H14.6774H8.3871H7.8871V14.6774V16.7742V17.2742H8.3871H14.6774ZM19.2549 35.7451L19.3773 35.1452H18.765H15.7258C15.4224 35.1452 15.1774 34.8996 15.1774 34.5968V29.471V29.0627L14.7773 28.9811C14.411 28.9064 14.0272 28.8548 13.629 28.8548C10.4627 28.8548 7.8871 31.4304 7.8871 34.5968C7.8871 37.7631 10.4627 40.3387 13.629 40.3387C16.4039 40.3387 18.7212 38.3617 19.2549 35.7451ZM4.19355 1.59677H3.69355V2.09677V44.0323V44.5323H4.19355H23.0645H23.5645V44.0323V35.6452V35.1452H23.0645H20.8838H20.4506L20.3889 35.5739C19.9122 38.8837 17.0649 41.4355 13.629 41.4355C9.85952 41.4355 6.79032 38.3672 6.79032 34.5968C6.79032 30.8263 9.85952 27.7581 13.629 27.7581C13.9472 27.7581 14.2692 27.7932 14.6071 27.8411L15.1774 27.9221V27.3461V18.871V18.371H14.6774H7.33871C7.03534 18.371 6.79032 18.1254 6.79032 17.8226V13.629C6.79032 13.3262 7.03534 13.0806 7.33871 13.0806H14.6774H15.1774V12.5806V10.4839V9.98387H14.6774H7.33871C7.03534 9.98387 6.79032 9.73827 6.79032 9.43548V5.24194C6.79032 4.93915 7.03534 4.69355 7.33871 4.69355H23.0645H23.5645V4.19355V2.09677V1.59677H23.0645H4.19355ZM62.9032 50.8226H63.4032V50.3226V46.129V45.629H62.9032H2.09677H1.59677V46.129V50.3226V50.8226H2.09677H62.9032ZM46.129 44.5323H46.629V44.0323V41.9355V41.4355H46.129H33.5484H33.0484V41.9355V44.0323V44.5323H33.5484H46.129ZM42.9839 40.3387H43.4839V39.8387V35.6452V35.1452H42.9839H36.6935H36.1935V35.6452V39.8387V40.3387H36.6935H42.9839Z" fill="url(#paint0_linear)" stroke="url(#paint1_linear)"/>
<path d="M20.9679 9.98398H20.4679V10.484V29.3549V29.8549H20.9679H58.7098H59.2098V29.3549V10.484V9.98398H58.7098H20.9679ZM59.7582 30.9517H19.9195C19.6161 30.9517 19.3711 30.7061 19.3711 30.4033V9.43559C19.3711 9.1328 19.6161 8.88721 19.9195 8.88721H59.7582C60.0616 8.88721 60.3066 9.1328 60.3066 9.43559V30.4033C60.3066 30.7061 60.0616 30.9517 59.7582 30.9517Z" fill="url(#paint2_linear)" stroke="url(#paint3_linear)"/>
<path d="M38.9581 15.3413L39.2901 15.2229V14.8703V13.0806H40.3869V14.6773V15.1773H40.8869H42.4837V16.2741H39.8385C38.9836 16.2741 38.2901 16.9692 38.2901 17.8225C38.2901 18.6758 38.9836 19.3709 39.8385 19.3709C41.2962 19.3709 42.4837 20.5584 42.4837 22.0161C42.4837 23.1588 41.7474 24.1305 40.719 24.4973L40.3869 24.6157V24.9682V26.758H39.2901V25.1612V24.6612H38.7901H37.1934V23.5644H39.8385C40.6934 23.5644 41.3869 22.8693 41.3869 22.0161C41.3869 21.1628 40.6934 20.4677 39.8385 20.4677C38.3808 20.4677 37.1934 19.2802 37.1934 17.8225C37.1934 16.6798 37.9297 15.708 38.9581 15.3413Z" fill="url(#paint4_linear)" stroke="url(#paint5_linear)"/>
<path d="M23.5645 15.1772H30.9515V16.274H23.5645V15.1772Z" fill="url(#paint6_linear)" stroke="url(#paint7_linear)"/>
<path d="M23.5645 19.3711H30.9515V20.4679H23.5645V19.3711Z" fill="url(#paint8_linear)" stroke="url(#paint9_linear)"/>
<path d="M23.5645 23.5645H30.9515V24.6612H23.5645V23.5645Z" fill="url(#paint10_linear)" stroke="url(#paint11_linear)"/>
<path d="M48.7266 15.1772H56.1137V16.274H48.7266V15.1772Z" fill="url(#paint12_linear)" stroke="url(#paint13_linear)"/>
<path d="M48.7266 19.3711H56.1137V20.4679H48.7266V19.3711Z" fill="url(#paint14_linear)" stroke="url(#paint15_linear)"/>
<path d="M48.7266 23.5645H56.1137V24.6612H48.7266V23.5645Z" fill="url(#paint16_linear)" stroke="url(#paint17_linear)"/>
<defs>
<linearGradient id="paint0_linear" x1="3.05952e-08" y1="10.1014" x2="34.5927" y2="10.1104" gradientUnits="userSpaceOnUse">
<stop stop-color="#02A5A2"/>
<stop offset="1" stop-color="#0471BF"/>
</linearGradient>
<linearGradient id="paint1_linear" x1="3.05952e-08" y1="10.1014" x2="34.5927" y2="10.1104" gradientUnits="userSpaceOnUse">
<stop stop-color="#02A5A2"/>
<stop offset="1" stop-color="#0471BF"/>
</linearGradient>
<linearGradient id="paint2_linear" x1="18.8711" y1="11.9716" x2="41.189" y2="11.9822" gradientUnits="userSpaceOnUse">
<stop stop-color="#02A5A2"/>
<stop offset="1" stop-color="#0471BF"/>
</linearGradient>
<linearGradient id="paint3_linear" x1="18.8711" y1="11.9716" x2="41.189" y2="11.9822" gradientUnits="userSpaceOnUse">
<stop stop-color="#02A5A2"/>
<stop offset="1" stop-color="#0471BF"/>
</linearGradient>
<linearGradient id="paint4_linear" x1="36.6934" y1="14.8615" x2="40.041" y2="14.8619" gradientUnits="userSpaceOnUse">
<stop stop-color="#02A5A2"/>
<stop offset="1" stop-color="#0471BF"/>
</linearGradient>
<linearGradient id="paint5_linear" x1="36.6934" y1="14.8615" x2="40.041" y2="14.8619" gradientUnits="userSpaceOnUse">
<stop stop-color="#02A5A2"/>
<stop offset="1" stop-color="#0471BF"/>
</linearGradient>
<linearGradient id="paint6_linear" x1="23.0645" y1="15.0031" x2="27.528" y2="15.0078" gradientUnits="userSpaceOnUse">
<stop stop-color="#02A5A2"/>
<stop offset="1" stop-color="#0471BF"/>
</linearGradient>
<linearGradient id="paint7_linear" x1="23.0645" y1="15.0031" x2="27.528" y2="15.0078" gradientUnits="userSpaceOnUse">
<stop stop-color="#02A5A2"/>
<stop offset="1" stop-color="#0471BF"/>
</linearGradient>
<linearGradient id="paint8_linear" x1="23.0645" y1="19.1969" x2="27.528" y2="19.2016" gradientUnits="userSpaceOnUse">
<stop stop-color="#02A5A2"/>
<stop offset="1" stop-color="#0471BF"/>
</linearGradient>
<linearGradient id="paint9_linear" x1="23.0645" y1="19.1969" x2="27.528" y2="19.2016" gradientUnits="userSpaceOnUse">
<stop stop-color="#02A5A2"/>
<stop offset="1" stop-color="#0471BF"/>
</linearGradient>
<linearGradient id="paint10_linear" x1="23.0645" y1="23.3903" x2="27.528" y2="23.395" gradientUnits="userSpaceOnUse">
<stop stop-color="#02A5A2"/>
<stop offset="1" stop-color="#0471BF"/>
</linearGradient>
<linearGradient id="paint11_linear" x1="23.0645" y1="23.3903" x2="27.528" y2="23.395" gradientUnits="userSpaceOnUse">
<stop stop-color="#02A5A2"/>
<stop offset="1" stop-color="#0471BF"/>
</linearGradient>
<linearGradient id="paint12_linear" x1="48.2266" y1="15.0031" x2="52.6901" y2="15.0078" gradientUnits="userSpaceOnUse">
<stop stop-color="#02A5A2"/>
<stop offset="1" stop-color="#0471BF"/>
</linearGradient>
<linearGradient id="paint13_linear" x1="48.2266" y1="15.0031" x2="52.6901" y2="15.0078" gradientUnits="userSpaceOnUse">
<stop stop-color="#02A5A2"/>
<stop offset="1" stop-color="#0471BF"/>
</linearGradient>
<linearGradient id="paint14_linear" x1="48.2266" y1="19.1969" x2="52.6901" y2="19.2016" gradientUnits="userSpaceOnUse">
<stop stop-color="#02A5A2"/>
<stop offset="1" stop-color="#0471BF"/>
</linearGradient>
<linearGradient id="paint15_linear" x1="48.2266" y1="19.1969" x2="52.6901" y2="19.2016" gradientUnits="userSpaceOnUse">
<stop stop-color="#02A5A2"/>
<stop offset="1" stop-color="#0471BF"/>
</linearGradient>
<linearGradient id="paint16_linear" x1="48.2266" y1="23.3903" x2="52.6901" y2="23.395" gradientUnits="userSpaceOnUse">
<stop stop-color="#02A5A2"/>
<stop offset="1" stop-color="#0471BF"/>
</linearGradient>
<linearGradient id="paint17_linear" x1="48.2266" y1="23.3903" x2="52.6901" y2="23.395" gradientUnits="userSpaceOnUse">
<stop stop-color="#02A5A2"/>
<stop offset="1" stop-color="#0471BF"/>
</linearGradient>
</defs>
</svg>
