<svg width="65" height="65" viewBox="0 0 65 65" fill="none" xmlns="http://www.w3.org/2000/svg">
<path d="M52.6743 56.6126L50.2473 49.3305C49.3991 46.7881 47.2352 44.9115 44.5975 44.4313L37.5911 43.1565V42.6134C38.8104 41.9058 39.8713 40.9591 40.7163 39.8383H42.833C44.5671 39.8383 45.9782 38.4272 45.9782 36.6932V24.1125C45.9782 16.5976 39.864 10.4834 32.3491 10.4834C24.8343 10.4834 18.7201 16.5976 18.7201 24.1125V31.4512C18.7201 33.4725 20.1574 35.1636 22.0634 35.5578C22.6515 38.5708 24.5344 41.1205 27.1072 42.6134V43.1565L20.0997 44.4313C17.463 44.9115 15.2981 46.7881 14.451 49.3305L14.0317 50.5896L10.4608 47.0188C10.052 46.6099 10.052 45.9442 10.4608 45.5353L14.602 41.3952L6.82922 33.6224L2.1492 38.3024C0.763228 39.6884 0 41.5315 0 43.492C0 45.4525 0.763228 47.2945 2.1492 48.6805L16.3182 62.8495C17.7042 64.2354 19.5472 64.9997 21.5077 64.9997C23.4682 64.9997 25.3102 64.2354 26.6637 62.8809L31.7704 58.2019L30.1779 56.6126H52.6743ZM43.8814 36.6932C43.8814 37.2719 43.4107 37.7415 42.833 37.7415H41.9514C42.2554 37.0486 42.486 36.3178 42.6349 35.5578C43.0836 35.4644 43.4967 35.2862 43.8814 35.0619V36.6932ZM42.833 33.2565V29.6459C43.4568 30.0097 43.8814 30.6785 43.8814 31.4512C43.8814 32.2239 43.4568 32.8927 42.833 33.2565ZM21.8652 33.2565C21.2414 32.8927 20.8168 32.2239 20.8168 31.4512C20.8168 30.6785 21.2414 30.0097 21.8652 29.6459V33.2565ZM21.8652 26.2093V27.4065C21.492 27.504 21.1418 27.6508 20.8168 27.8405V24.1125C20.8168 17.754 25.9906 12.5802 32.3491 12.5802C38.7076 12.5802 43.8814 17.754 43.8814 24.1125V27.8405C43.5564 27.6508 43.2063 27.503 42.833 27.4065V26.2093H41.7847C38.6846 26.2093 35.77 25.0015 33.5768 22.8093L32.3491 21.5817L31.1215 22.8093C28.9282 25.0015 26.0137 26.2093 22.9136 26.2093H21.8652ZM23.962 33.548V28.2662C27.1103 28.0293 30.0458 26.7303 32.3491 24.5402C34.6525 26.7303 37.5879 28.0303 40.7363 28.2662V33.548C40.7363 35.0765 40.319 36.5065 39.6019 37.7415H32.3491V39.8383H37.8783C36.4001 41.1394 34.4679 41.9351 32.3491 41.9351C27.7247 41.9351 23.962 38.1724 23.962 33.548ZM35.4943 43.5486V43.5979L32.3491 46.743L29.204 43.5979V43.5486C30.1978 43.861 31.2536 44.0319 32.3491 44.0319C33.4447 44.0319 34.5004 43.861 35.4943 43.5486ZM16.4388 49.993C17.0437 48.1772 18.5901 46.8363 20.474 46.4925L27.8023 45.161L32.3491 49.7079L36.895 45.1621L44.2222 46.4935C46.1061 46.8374 47.6525 48.1772 48.2574 49.9941L49.7661 54.5158H28.0811L23.9977 50.4323L19.4602 54.5368C19.065 54.9341 18.3741 54.9341 17.9778 54.5368L15.6881 52.2471L16.4388 49.993ZM6.82817 36.5873L11.6361 41.3952L10.4975 42.5337L5.68961 37.7258L6.82817 36.5873ZM25.2117 61.3691C24.222 62.3567 22.9052 62.9029 21.5056 62.9029C20.106 62.9029 18.7893 62.3567 17.7985 61.367L3.62953 47.1991C2.63985 46.2094 2.09468 44.8926 2.09468 43.493C2.09468 42.0924 2.63985 40.7756 3.62953 39.7859L4.20614 39.2093L9.01406 44.0172L8.97632 44.055C7.75075 45.2816 7.75075 47.2767 8.97632 48.5033L16.4943 56.0213C17.0888 56.6147 17.8782 56.9428 18.719 56.9428C19.5598 56.9428 20.3493 56.6157 20.9049 56.058L20.9835 55.9877L25.8135 60.8177L25.2117 61.3691ZM27.3609 59.3982L22.5414 54.5787L23.9264 53.3269L28.7374 58.138L27.3609 59.3982Z" fill="url(#paint0_linear)"/>
<path d="M61.7055 0H47.028C45.2939 0 43.8828 1.41113 43.8828 3.14517V11.5323C43.8828 13.2663 45.2939 14.6775 47.028 14.6775H49.8282L48.7442 21.0003L58.8612 14.6775H61.7055C63.4395 14.6775 64.8506 13.2663 64.8506 11.5323V3.14517C64.8506 1.41113 63.4395 0 61.7055 0ZM62.7538 11.5323C62.7538 12.11 62.2831 12.5807 61.7055 12.5807H58.2594L51.6011 16.7417L52.315 12.5807H47.028C46.4503 12.5807 45.9796 12.11 45.9796 11.5323V3.14517C45.9796 2.56751 46.4503 2.09678 47.028 2.09678H61.7055C62.2831 2.09678 62.7538 2.56751 62.7538 3.14517V11.5323Z" fill="url(#paint1_linear)"/>
<path d="M60.6569 4.19336H48.0762V6.29014H60.6569V4.19336Z" fill="url(#paint2_linear)"/>
<path d="M56.4633 8.38721H48.0762V10.484H56.4633V8.38721Z" fill="url(#paint3_linear)"/>
<path d="M60.6573 8.38721H58.5605V10.484H60.6573V8.38721Z" fill="url(#paint4_linear)"/>
<path d="M32.3502 3.14502C18.6519 3.14502 6.85228 12.6204 3.78469 25.8374L1.79799 22.5256L0 23.6044L3.68509 29.7448L9.82551 26.0597L8.74672 24.2617L5.90558 25.9664C8.87672 13.8753 19.7496 5.2418 32.3502 5.2418C35.1043 5.2418 37.8217 5.65067 40.427 6.45793L41.0476 4.45551C38.2411 3.58534 35.315 3.14502 32.3502 3.14502Z" fill="url(#paint5_linear)"/>
<path d="M64.3413 23.2134L58.2009 19.5283L54.5169 25.6698L56.3149 26.7486L58.1496 23.6904C59.1151 26.5158 59.6089 29.4713 59.6089 32.5001C59.6089 38.7348 57.4492 44.8302 53.5293 49.6622L55.1574 50.9832C59.3804 45.779 61.7057 39.2139 61.7057 32.5001C61.7057 29.293 61.1888 26.1615 60.1813 23.1631L63.2626 25.0114L64.3413 23.2134Z" fill="url(#paint6_linear)"/>
<defs>
<linearGradient id="paint0_linear" x1="2.47936e-08" y1="18.9556" x2="28.033" y2="18.9626" gradientUnits="userSpaceOnUse">
<stop stop-color="#02A5A2"/>
<stop offset="1" stop-color="#0471BF"/>
</linearGradient>
<linearGradient id="paint1_linear" x1="43.8828" y1="3.26358" x2="55.0418" y2="3.26648" gradientUnits="userSpaceOnUse">
<stop stop-color="#02A5A2"/>
<stop offset="1" stop-color="#0471BF"/>
</linearGradient>
<linearGradient id="paint2_linear" x1="48.0762" y1="4.51921" x2="54.7715" y2="4.52969" gradientUnits="userSpaceOnUse">
<stop stop-color="#02A5A2"/>
<stop offset="1" stop-color="#0471BF"/>
</linearGradient>
<linearGradient id="paint3_linear" x1="48.0762" y1="8.71306" x2="52.5398" y2="8.71772" gradientUnits="userSpaceOnUse">
<stop stop-color="#02A5A2"/>
<stop offset="1" stop-color="#0471BF"/>
</linearGradient>
<linearGradient id="paint4_linear" x1="58.5605" y1="8.71306" x2="59.6764" y2="8.71335" gradientUnits="userSpaceOnUse">
<stop stop-color="#02A5A2"/>
<stop offset="1" stop-color="#0471BF"/>
</linearGradient>
<linearGradient id="paint5_linear" x1="1.93209e-08" y1="7.27879" x2="21.8454" y2="7.28758" gradientUnits="userSpaceOnUse">
<stop stop-color="#02A5A2"/>
<stop offset="1" stop-color="#0471BF"/>
</linearGradient>
<linearGradient id="paint6_linear" x1="53.5293" y1="24.4166" x2="59.2834" y2="24.4171" gradientUnits="userSpaceOnUse">
<stop stop-color="#02A5A2"/>
<stop offset="1" stop-color="#0471BF"/>
</linearGradient>
</defs>
</svg>
