<svg width="18" height="19" viewBox="0 0 18 19" fill="none" xmlns="http://www.w3.org/2000/svg">
<path d="M17.8423 18.031L13.468 13.4137C14.6414 11.9898 15.3518 10.1319 15.3518 8.10133C15.3518 3.63149 11.9075 0 7.67689 0C3.44231 0 0.00195312 3.6357 0.00195312 8.10133C0.00195312 12.567 3.4463 16.2027 7.67689 16.2027C9.60062 16.2027 11.3607 15.4528 12.7097 14.2142L17.084 18.8315C17.1877 18.941 17.3274 19 17.4631 19C17.5988 19 17.7385 18.9452 17.8423 18.8315C18.0498 18.6124 18.0498 18.2501 17.8423 18.031ZM1.07557 8.10133C1.07557 4.2592 4.03698 1.13747 7.6729 1.13747C11.3128 1.13747 14.2702 4.26341 14.2702 8.10133C14.2702 11.9392 11.3128 15.0694 7.6729 15.0694C4.03698 15.0694 1.07557 11.9435 1.07557 8.10133Z" fill="white"/>
</svg>
