<svg width="65" height="65" viewBox="0 0 65 65" fill="none" xmlns="http://www.w3.org/2000/svg">
<path d="M47.666 0H17.3327C14.3427 0.00352083 11.9195 2.42667 11.916 5.41667V59.5833C11.9195 62.5733 14.3427 64.9965 17.3327 65H47.666C50.656 64.9965 53.0792 62.5733 53.0827 59.5833V5.41667C53.0792 2.42667 50.656 0.00352083 47.666 0ZM50.916 59.5833C50.916 61.3783 49.461 62.8333 47.666 62.8333H17.3327C15.5377 62.8333 14.0827 61.3783 14.0827 59.5833V56.3333H50.916V59.5833ZM50.916 54.1667H14.0827V10.8333H50.916V54.1667ZM50.916 8.66667H14.0827V5.41667C14.0827 3.62172 15.5377 2.16667 17.3327 2.16667H47.666C49.461 2.16667 50.916 3.62172 50.916 5.41667V8.66667Z" fill="url(#paint0_linear)"/>
<path d="M31.4154 60.6667H33.582C34.1803 60.6667 34.6654 60.1816 34.6654 59.5833C34.6654 58.9851 34.1803 58.5 33.582 58.5H31.4154C30.8171 58.5 30.332 58.9851 30.332 59.5833C30.332 60.1816 30.8171 60.6667 31.4154 60.6667Z" fill="url(#paint1_linear)"/>
<path d="M20.5833 4.3335H17.3333C16.7351 4.3335 16.25 4.81856 16.25 5.41683C16.25 6.0151 16.7351 6.50016 17.3333 6.50016H20.5833C21.1816 6.50016 21.6667 6.0151 21.6667 5.41683C21.6667 4.81856 21.1816 4.3335 20.5833 4.3335Z" fill="url(#paint2_linear)"/>
<path d="M25.9987 48.75H32.4987C33.097 48.75 33.582 48.2649 33.582 47.6667V41.1667C33.582 40.5684 33.097 40.0833 32.4987 40.0833H28.1654V24.9167H32.4987C33.097 24.9167 33.582 24.4316 33.582 23.8333V17.3333C33.582 16.7351 33.097 16.25 32.4987 16.25H25.9987C23.0087 16.2535 20.5856 18.6767 20.582 21.6667V43.3333C20.5856 46.3233 23.0087 48.7465 25.9987 48.75ZM22.7487 21.6667C22.7487 19.8717 24.2037 18.4167 25.9987 18.4167H31.4154V22.75H27.082C26.4838 22.75 25.9987 23.2351 25.9987 23.8333V41.1667C25.9987 41.7649 26.4838 42.25 27.082 42.25H31.4154V46.5833H25.9987C24.2037 46.5833 22.7487 45.1283 22.7487 43.3333V21.6667Z" fill="url(#paint3_linear)"/>
<path d="M34.6654 33.5832H44.4154C45.0136 33.5832 45.4987 33.0981 45.4987 32.4998C45.4987 31.9016 45.0136 31.4165 44.4154 31.4165H34.6654C34.0671 31.4165 33.582 31.9016 33.582 32.4998C33.582 33.0981 34.0671 33.5832 34.6654 33.5832Z" fill="url(#paint4_linear)"/>
<path d="M36.1983 27.7181C36.4857 27.7181 36.7611 27.6038 36.9643 27.4007L43.8586 20.5063C44.2743 20.076 44.2624 19.3902 43.832 18.9745C43.4123 18.5691 42.7467 18.5691 42.3268 18.9745L35.4324 25.8688C35.0094 26.292 35.0095 26.9779 35.4327 27.4009C35.6358 27.6039 35.9111 27.7181 36.1983 27.7181Z" fill="url(#paint5_linear)"/>
<path d="M36.963 37.5996C36.5326 37.1839 35.8469 37.1958 35.4311 37.6261C35.0256 38.0459 35.0256 38.7116 35.4311 39.1314L42.3255 46.0257C42.7558 46.4415 43.4416 46.4296 43.8573 45.9992C44.2629 45.5794 44.2629 44.9137 43.8573 44.4939L36.963 37.5996Z" fill="url(#paint6_linear)"/>
<defs>
<linearGradient id="paint0_linear" x1="11.916" y1="10.1014" x2="33.8247" y2="10.105" gradientUnits="userSpaceOnUse">
<stop stop-color="#02A5A2"/>
<stop offset="1" stop-color="#0471BF"/>
</linearGradient>
<linearGradient id="paint1_linear" x1="30.332" y1="58.8367" x2="32.6382" y2="58.8379" gradientUnits="userSpaceOnUse">
<stop stop-color="#02A5A2"/>
<stop offset="1" stop-color="#0471BF"/>
</linearGradient>
<linearGradient id="paint2_linear" x1="16.25" y1="4.67021" x2="19.1327" y2="4.67209" gradientUnits="userSpaceOnUse">
<stop stop-color="#02A5A2"/>
<stop offset="1" stop-color="#0471BF"/>
</linearGradient>
<linearGradient id="paint3_linear" x1="20.582" y1="21.3007" x2="27.5006" y2="21.3014" gradientUnits="userSpaceOnUse">
<stop stop-color="#02A5A2"/>
<stop offset="1" stop-color="#0471BF"/>
</linearGradient>
<linearGradient id="paint4_linear" x1="33.582" y1="31.7532" x2="39.924" y2="31.7623" gradientUnits="userSpaceOnUse">
<stop stop-color="#02A5A2"/>
<stop offset="1" stop-color="#0471BF"/>
</linearGradient>
<linearGradient id="paint5_linear" x1="35.1152" y1="20.0765" x2="39.9303" y2="20.0777" gradientUnits="userSpaceOnUse">
<stop stop-color="#02A5A2"/>
<stop offset="1" stop-color="#0471BF"/>
</linearGradient>
<linearGradient id="paint6_linear" x1="35.127" y1="38.6994" x2="39.9351" y2="38.7007" gradientUnits="userSpaceOnUse">
<stop stop-color="#02A5A2"/>
<stop offset="1" stop-color="#0471BF"/>
</linearGradient>
</defs>
</svg>
