<svg width="65" height="65" viewBox="0 0 65 65" fill="none" xmlns="http://www.w3.org/2000/svg">
<path d="M43.3327 5.4165H21.666V7.58317H43.3327V5.4165Z" fill="url(#paint0_linear)"/>
<path d="M53.6257 40.6248C53.6257 38.5343 51.9244 36.8332 49.834 36.8332H47.6673V21.6665H45.5007V36.8332H42.7923C40.7018 36.8332 39.0007 38.5344 39.0007 40.6248C39.0007 41.6862 39.4418 42.6442 40.1471 43.3332C39.4418 44.0222 39.0007 44.9801 39.0007 46.0415C39.0007 46.7718 39.218 47.4485 39.5774 48.0278C38.2815 48.6313 37.3757 49.9372 37.3757 51.4582C37.3757 52.042 37.5193 52.5888 37.756 53.0832H29.2507C29.2507 49.7707 27.5907 46.8392 25.0591 45.0767C27.5072 44.1435 29.2507 41.7717 29.2507 38.9998C29.2507 38.4016 28.7661 37.9165 28.1673 37.9165H19.5007V27.0832H17.334V37.9165C15.5419 37.9165 14.084 39.3744 14.084 41.1665V64.9998H16.2507V41.1665C16.2507 40.5693 16.7363 40.0832 17.334 40.0832H26.9464C26.465 41.9499 24.7659 43.3332 22.7507 43.3332H19.5007C18.9018 43.3332 18.4173 43.8182 18.4173 44.4165C18.4173 45.0148 18.9018 45.4998 19.5007 45.4998C23.6816 45.4998 27.084 48.9016 27.084 53.0832V54.1665C27.084 54.7648 27.5685 55.2498 28.1673 55.2498H34.506C34.2693 55.7442 34.1257 56.2911 34.1257 56.8748C34.1257 58.9654 35.8269 60.6665 37.9173 60.6665V64.9998H40.084V60.6665H44.4173H44.959C47.0495 60.6665 48.7507 58.9653 48.7507 56.8748C48.7507 56.2848 48.6035 55.7329 48.3619 55.2344C50.3803 55.1521 52.0007 53.4963 52.0007 51.4582C52.0007 50.7279 51.7833 50.0512 51.4239 49.4719C52.7198 48.8683 53.6257 47.5625 53.6257 46.0415C53.6257 44.9801 53.1845 44.0222 52.4792 43.3332C53.1845 42.6442 53.6257 41.6862 53.6257 40.6248ZM44.959 58.4998H44.4173H39.0007H37.9173C37.0213 58.4998 36.2923 57.7709 36.2923 56.8748C36.2923 55.9788 37.0213 55.2498 37.9173 55.2498H41.1673H44.959C45.855 55.2498 46.584 55.9788 46.584 56.8748C46.584 57.7709 45.855 58.4998 44.959 58.4998ZM48.209 53.0832H44.959H41.1673C40.2713 53.0832 39.5423 52.3542 39.5423 51.4582C39.5423 50.5621 40.2713 49.8332 41.1673 49.8332H42.7923H48.209C49.105 49.8332 49.834 50.5621 49.834 51.4582C49.834 52.3542 49.105 53.0832 48.209 53.0832ZM49.834 47.6665H48.209H42.7923C41.8963 47.6665 41.1673 46.9376 41.1673 46.0415C41.1673 45.1455 41.8963 44.4165 42.7923 44.4165H49.834C50.73 44.4165 51.459 45.1455 51.459 46.0415C51.459 46.9376 50.73 47.6665 49.834 47.6665ZM49.834 42.2498H42.7923C41.8963 42.2498 41.1673 41.5209 41.1673 40.6248C41.1673 39.7288 41.8963 38.9998 42.7923 38.9998H49.834C50.73 38.9998 51.459 39.7288 51.459 40.6248C51.459 41.5209 50.73 42.2498 49.834 42.2498Z" fill="url(#paint1_linear)"/>
<path d="M16.2476 13.7892C16.2253 13.4782 16.0708 13.1915 15.8222 13.0031L14.6945 12.1482C14.4247 10.7826 13.226 9.75 11.7925 9.75C10.1749 9.75 8.85556 11.065 8.83444 12.6895C7.96899 12.5382 7.14173 12.2061 6.40114 11.7072L6.02346 11.4522C5.69237 11.2285 5.26282 11.2041 4.90844 11.3934C4.55514 11.5812 4.334 11.9494 4.334 12.3499V13.2386C4.334 14.5442 4.72752 15.7893 5.45755 16.8351L4.64722 17.6551C4.33942 17.9656 4.24937 18.4306 4.41769 18.8342C4.58574 19.2372 4.98034 19.5 5.41733 19.5H10.6669C12.7606 19.5 14.4913 17.9041 14.7241 15.8559L15.9376 14.6283C16.1566 14.4066 16.2698 14.1008 16.2476 13.7892ZM12.8969 14.6219C12.696 14.8245 12.5837 15.0986 12.5837 15.3836C12.5837 16.4585 11.7236 17.3333 10.6668 17.3333H7.9109C8.08233 16.9387 8.00826 16.4626 7.68773 16.1384C7.18208 15.6264 6.82025 14.9821 6.63717 14.2875C7.6708 14.7234 8.78163 14.9499 9.91791 14.9499C10.5167 14.9499 11.0012 14.4648 11.0012 13.8665V12.7292C11.0012 12.2811 11.3567 11.9167 11.7926 11.9167C12.2285 11.9167 12.584 12.2811 12.584 12.7292C12.584 13.0683 12.7427 13.3877 13.0124 13.5924L13.5288 13.9834L12.8969 14.6219Z" fill="url(#paint2_linear)"/>
<path d="M35.75 18.4167V16.25H32.5C31.9012 16.25 31.4167 16.7351 31.4167 17.3333V20.5833H29.25V22.75H31.4167V27.0833H33.5833V22.75H35.75V20.5833H33.5833V18.4167H35.75Z" fill="url(#paint3_linear)"/>
<path d="M39 11.9165H26C24.2079 11.9165 22.75 13.3744 22.75 15.1665V28.1665C22.75 29.9586 24.2079 31.4165 26 31.4165H39C40.7921 31.4165 42.25 29.9586 42.25 28.1665V15.1665C42.25 13.3744 40.7921 11.9165 39 11.9165ZM40.0833 28.1665C40.0833 28.7637 39.5977 29.2498 39 29.2498H26C25.4023 29.2498 24.9167 28.7637 24.9167 28.1665V15.1665C24.9167 14.5693 25.4023 14.0832 26 14.0832H39C39.5977 14.0832 40.0833 14.5693 40.0833 15.1665V28.1665Z" fill="url(#paint4_linear)"/>
<path d="M16.25 5.4165H3.25C1.4579 5.4165 0 6.8744 0 8.6665V21.6665C0 23.4586 1.4579 24.9165 3.25 24.9165H16.25C18.0421 24.9165 19.5 23.4586 19.5 21.6665V8.6665C19.5 6.8744 18.0421 5.4165 16.25 5.4165ZM17.3333 21.6665C17.3333 22.2637 16.8477 22.7498 16.25 22.7498H3.25C2.65227 22.7498 2.16667 22.2637 2.16667 21.6665V8.6665C2.16667 8.06932 2.65227 7.58317 3.25 7.58317H16.25C16.8477 7.58317 17.3333 8.06932 17.3333 8.6665V21.6665Z" fill="url(#paint5_linear)"/>
<path d="M61.75 0H48.75C46.9579 0 45.5 1.4579 45.5 3.25V16.25C45.5 18.0421 46.9579 19.5 48.75 19.5H61.75C63.5421 19.5 65 18.0421 65 16.25V3.25C65 1.4579 63.5421 0 61.75 0ZM62.8333 16.25C62.8333 16.8472 62.3477 17.3333 61.75 17.3333H48.75C48.1523 17.3333 47.6667 16.8472 47.6667 16.25V10.8333H49.9429C50.4462 13.3025 52.6344 15.1667 55.25 15.1667C57.8656 15.1667 60.0538 13.3025 60.5571 10.8333H62.8333V16.25ZM52 9.75C52 7.9579 53.4579 6.5 55.25 6.5C57.0421 6.5 58.5 7.9579 58.5 9.75C58.5 11.5421 57.0421 13 55.25 13C53.4579 13 52 11.5421 52 9.75ZM62.8333 8.66667H60.5571C60.0538 6.19748 57.8656 4.33333 55.25 4.33333C52.6344 4.33333 50.4462 6.19748 49.9429 8.66667H47.6667V3.25C47.6667 2.65281 48.1523 2.16667 48.75 2.16667H61.75C62.3477 2.16667 62.8333 2.65281 62.8333 3.25V8.66667Z" fill="url(#paint6_linear)"/>
<path d="M33.5827 44.4165H31.416V46.5832H33.5827V44.4165Z" fill="url(#paint7_linear)"/>
<defs>
<linearGradient id="paint0_linear" x1="21.666" y1="5.75322" x2="33.1968" y2="5.7833" gradientUnits="userSpaceOnUse">
<stop stop-color="#02A5A2"/>
<stop offset="1" stop-color="#0471BF"/>
</linearGradient>
<linearGradient id="paint1_linear" x1="14.084" y1="28.4008" x2="35.1279" y2="28.4058" gradientUnits="userSpaceOnUse">
<stop stop-color="#02A5A2"/>
<stop offset="1" stop-color="#0471BF"/>
</linearGradient>
<linearGradient id="paint2_linear" x1="4.33398" y1="11.2652" x2="10.6758" y2="11.2672" gradientUnits="userSpaceOnUse">
<stop stop-color="#02A5A2"/>
<stop offset="1" stop-color="#0471BF"/>
</linearGradient>
<linearGradient id="paint3_linear" x1="29.25" y1="17.9336" x2="32.7093" y2="17.9341" gradientUnits="userSpaceOnUse">
<stop stop-color="#02A5A2"/>
<stop offset="1" stop-color="#0471BF"/>
</linearGradient>
<linearGradient id="paint4_linear" x1="22.75" y1="14.9469" x2="33.1278" y2="14.9496" gradientUnits="userSpaceOnUse">
<stop stop-color="#02A5A2"/>
<stop offset="1" stop-color="#0471BF"/>
</linearGradient>
<linearGradient id="paint5_linear" x1="9.17857e-09" y1="8.44692" x2="10.3778" y2="8.44963" gradientUnits="userSpaceOnUse">
<stop stop-color="#02A5A2"/>
<stop offset="1" stop-color="#0471BF"/>
</linearGradient>
<linearGradient id="paint6_linear" x1="45.5" y1="3.03042" x2="55.8778" y2="3.03313" gradientUnits="userSpaceOnUse">
<stop stop-color="#02A5A2"/>
<stop offset="1" stop-color="#0471BF"/>
</linearGradient>
<linearGradient id="paint7_linear" x1="31.416" y1="44.7532" x2="32.5691" y2="44.7535" gradientUnits="userSpaceOnUse">
<stop stop-color="#02A5A2"/>
<stop offset="1" stop-color="#0471BF"/>
</linearGradient>
</defs>
</svg>
