<svg width="65" height="65" viewBox="0 0 65 65" fill="none" xmlns="http://www.w3.org/2000/svg">
<g clip-path="url(#clip0)">
<path d="M64.8716 26.5162C63.4668 11.4826 50.8447 -0.00770218 35.7456 0.00181873C21.6614 -0.0672396 9.5573 9.97808 7.02931 23.8338C6.74889 23.896 6.47989 24.0016 6.23196 24.1468L2.81434 26.2007C1.64949 26.8872 0.795398 27.9979 0.431192 29.2999C-0.837374 33.8963 0.0856459 41.7997 11.6409 53.355C20.8118 62.5259 27.6829 64.9979 32.4255 64.9979C33.5299 65.003 34.6299 64.859 35.6959 64.5699C36.9983 64.2062 38.1091 63.352 38.7951 62.1868L40.8533 58.7647C40.997 58.5166 41.1011 58.2477 41.162 57.9674C56.0014 55.1797 66.2764 41.5497 64.8716 26.5162ZM38.9901 57.649L36.9373 61.0711C36.5363 61.757 35.8858 62.2614 35.1217 62.4793C29.4085 64.0446 21.6133 60.2618 13.1714 51.8199C4.72957 43.3781 0.945702 35.5872 2.51322 29.874C2.73081 29.1098 3.23529 28.4592 3.92143 28.0584L7.34667 26.0002C7.63217 25.8289 8.00209 25.9124 8.18616 26.1898L13.647 34.3781C13.827 34.6495 13.7681 35.0137 13.5115 35.2145L10.4469 37.5976C9.35558 38.4348 9.04457 39.9463 9.71687 41.1464L9.95845 41.5894C11.4973 44.4133 13.4945 46.9619 15.8688 49.1311C18.0383 51.5066 20.5881 53.5044 23.4138 55.0424L23.8536 55.2829C25.0533 55.9576 26.5666 55.6462 27.4024 54.5528L29.7855 51.4894C29.987 51.2327 30.3516 51.1734 30.624 51.3529L38.8071 56.8093C39.0826 56.9954 39.1633 57.3653 38.9901 57.649ZM40.8034 55.8303C40.5967 55.5038 40.3246 55.2237 40.0039 55.008L31.8187 49.5505C30.601 48.7473 28.9708 49.0127 28.0706 50.1604L25.6875 53.2238C25.5037 53.4669 25.1693 53.5384 24.9021 53.3918L24.446 53.1416C21.8041 51.6992 19.4211 49.8266 17.395 47.6006C15.1697 45.5755 13.2975 43.1936 11.8553 40.5529L11.6039 40.0936C11.4569 39.8268 11.5285 39.4925 11.7719 39.3093L14.8353 36.9262C15.9852 36.027 16.2502 34.3949 15.4441 33.1781L9.98879 24.9919C9.77298 24.671 9.49256 24.3987 9.16555 24.1924C11.7672 10.4648 24.3895 0.973205 38.2996 2.28417C52.2098 3.59526 62.8364 15.2782 62.8273 29.25C62.8919 42.2746 53.6131 53.473 40.8034 55.8303Z" fill="url(#paint0_linear)"/>
<path d="M35.7445 5.41797C26.1692 5.43422 17.5284 11.1653 13.7888 19.9804C13.6767 20.2451 13.6746 20.5435 13.7826 20.8098C13.8906 21.0762 14.1002 21.2887 14.365 21.4005C14.4982 21.4577 14.6415 21.4871 14.7863 21.4872C15.2214 21.4874 15.6144 21.2271 15.784 20.8265C19.1707 12.8014 27.0339 7.5848 35.7443 7.58467C36.3426 7.58467 36.8275 7.09974 36.8275 6.50145C36.8275 5.90315 36.3428 5.41797 35.7445 5.41797Z" fill="url(#paint1_linear)"/>
<path d="M44.1688 49.2101C43.8123 49.361 43.5635 49.6907 43.516 50.0749C43.4685 50.459 43.6295 50.8393 43.9385 51.0725C44.2475 51.3057 44.6573 51.3564 45.0137 51.2054C53.8401 47.4795 59.5772 38.8303 59.5772 29.2497C59.5772 28.6514 59.0922 28.1665 58.4939 28.1665C57.8956 28.1665 57.4107 28.6514 57.4107 29.2497C57.3955 37.9558 52.1839 45.8115 44.1688 49.2101Z" fill="url(#paint2_linear)"/>
<path d="M32.4963 19.5005H25.9967C24.8001 19.5005 23.8301 20.4705 23.8301 21.6671V23.8336C23.8301 24.4319 24.315 24.9169 24.9133 24.9169C25.5116 24.9169 25.9965 24.4319 25.9965 23.8336V21.6671H32.4961V24.0849C32.496 24.3526 32.3969 24.6107 32.2177 24.8096L24.6522 33.2168C24.0799 33.8527 23.9353 34.7658 24.2833 35.5474C24.6312 36.329 25.4065 36.8326 26.262 36.8329H33.5795C34.1778 36.8329 34.6627 36.3479 34.6627 35.7496C34.6627 35.1513 34.1777 34.6664 33.5795 34.6664H26.262L33.8275 26.2602C34.3662 25.6639 34.6639 24.8886 34.6627 24.085V21.6672C34.6627 21.0926 34.4345 20.5416 34.0281 20.1352C33.622 19.7287 33.0709 19.5005 32.4963 19.5005Z" fill="url(#paint3_linear)"/>
<path d="M44.4119 35.7497C44.4119 36.348 44.8968 36.833 45.4951 36.833C46.0934 36.833 46.5783 36.348 46.5783 35.7497V32.4999H47.6616C48.2599 32.4999 48.7448 32.015 48.7448 31.4167C48.7448 30.8184 48.2599 30.3335 47.6616 30.3335H46.5783V28.1669C46.5783 27.5686 46.0934 27.0837 45.4951 27.0837C44.8968 27.0837 44.4119 27.5686 44.4119 28.1669V30.3335H39.665L44.3036 21.0682C44.5711 20.5328 44.3537 19.8819 43.8183 19.6145C43.2828 19.347 42.632 19.5643 42.3645 20.0998L37.7324 29.365C37.3973 30.0358 37.4327 30.8321 37.8262 31.4704C38.2197 32.1087 38.9151 32.4981 39.665 32.5001H44.4119V35.7497Z" fill="url(#paint4_linear)"/>
</g>
<defs>
<linearGradient id="paint0_linear" x1="3.05952e-08" y1="10.1023" x2="34.5927" y2="10.1114" gradientUnits="userSpaceOnUse">
<stop stop-color="#02A5A2"/>
<stop offset="1" stop-color="#0471BF"/>
</linearGradient>
<linearGradient id="paint1_linear" x1="13.7031" y1="7.91523" x2="26.0098" y2="7.91985" gradientUnits="userSpaceOnUse">
<stop stop-color="#02A5A2"/>
<stop offset="1" stop-color="#0471BF"/>
</linearGradient>
<linearGradient id="paint2_linear" x1="43.5078" y1="31.7602" x2="52.0598" y2="31.7618" gradientUnits="userSpaceOnUse">
<stop stop-color="#02A5A2"/>
<stop offset="1" stop-color="#0471BF"/>
</linearGradient>
<linearGradient id="paint3_linear" x1="23.8301" y1="22.194" x2="29.5952" y2="22.195" gradientUnits="userSpaceOnUse">
<stop stop-color="#02A5A2"/>
<stop offset="1" stop-color="#0471BF"/>
</linearGradient>
<linearGradient id="paint4_linear" x1="37.5039" y1="22.1936" x2="43.4863" y2="22.1947" gradientUnits="userSpaceOnUse">
<stop stop-color="#02A5A2"/>
<stop offset="1" stop-color="#0471BF"/>
</linearGradient>
<clipPath id="clip0">
<rect width="65" height="65" fill="white"/>
</clipPath>
</defs>
</svg>
