<svg width="9" height="5" viewBox="0 0 9 5" fill="none" xmlns="http://www.w3.org/2000/svg">
<path d="M4.07616 3.02171L7.12771 0.124159C7.21153 0.0443745 7.3236 0.000483503 7.4431 0.000483505C7.56267 0.000483506 7.67467 0.0443745 7.75863 0.124159L8.02588 0.378058C8.10996 0.457717 8.15625 0.564201 8.15625 0.677675C8.15625 0.79115 8.10996 0.897507 8.02588 0.977229L4.39275 4.42723C4.30853 4.50727 4.19599 4.55109 4.07636 4.55078C3.9562 4.55109 3.8438 4.50733 3.75951 4.42723L0.129901 0.980441C0.0458136 0.900719 -0.000473929 0.794361 -0.000473928 0.680824C-0.000473926 0.56735 0.0458136 0.460991 0.129901 0.381207L0.39715 0.12737C0.571094 -0.0378033 0.854258 -0.0378033 1.02814 0.12737L4.07616 3.02171Z" fill="white"/>
</svg>
