<svg width="67" height="67" viewBox="0 0 67 67" fill="none" xmlns="http://www.w3.org/2000/svg">
<g clip-path="url(#clip0)">
<path d="M55.596 36.3698C54.5129 35.0018 54.8228 34.3933 55.596 33.1705C55.61 33.1565 64.5517 20.8006 65.473 16.6103L65.4785 16.6075C65.9364 15.0805 65.4785 13.9583 63.2647 13.9583H55.9394C54.0746 13.9583 53.2147 14.9214 52.7541 15.999C52.7541 15.999 49.0245 24.9267 43.7482 30.7138C42.0453 32.386 41.258 32.922 40.3284 32.922C39.8706 32.922 39.1587 32.386 39.1587 30.859V16.6075C39.1587 14.7762 38.6367 13.9583 37.0929 13.9583H25.5745C24.4047 13.9583 23.7096 14.8125 23.7096 15.6081C23.7096 17.3445 26.3477 17.7438 26.6213 22.6292V33.2291C26.6213 35.5518 26.1998 35.9789 25.2646 35.9789C22.7744 35.9789 16.7305 27.0149 13.1487 16.7555C12.4257 14.765 11.7194 13.961 9.84062 13.961H2.5125C0.421542 13.961 0 14.9242 0 16.0018C0 17.9057 2.49017 27.3722 11.5798 39.8789C17.6377 48.4158 26.1691 53.0416 33.9299 53.0416C38.5948 53.0416 39.1643 52.0143 39.1643 50.2471C39.1643 42.0899 38.7427 41.3194 41.0794 41.3194C42.1625 41.3194 44.0274 41.8554 48.3824 45.9731C53.3599 50.8557 54.1779 53.0416 56.964 53.0416H64.2893C66.3774 53.0416 67.4355 52.0143 66.8269 49.9875C65.4339 45.7246 56.0204 36.956 55.596 36.3698Z" fill="#4B729F"/>
</g>
<defs>
<clipPath id="clip0">
<rect width="67" height="67" fill="white"/>
</clipPath>
</defs>
</svg>
